<?xml version="1.0" encoding="UTF-8" standalone="no"?>
<svg
   xmlns:dc="http://purl.org/dc/elements/1.1/"
   xmlns:cc="http://creativecommons.org/ns#"
   xmlns:rdf="http://www.w3.org/1999/02/22-rdf-syntax-ns#"
   xmlns:svg="http://www.w3.org/2000/svg"
   xmlns="http://www.w3.org/2000/svg"
   xmlns:sodipodi="http://sodipodi.sourceforge.net/DTD/sodipodi-0.dtd"
   xmlns:inkscape="http://www.inkscape.org/namespaces/inkscape"
   viewBox="0 0 640 480"
   version="1.1"
   id="svg36"
   sodipodi:docname="Axe.svg"
   inkscape:version="0.92.2 (5c3e80d, 2017-08-06)">
  <metadata
     id="metadata42">
    <rdf:RDF>
      <cc:Work
         rdf:about="">
        <dc:format>image/svg+xml</dc:format>
        <dc:type
           rdf:resource="http://purl.org/dc/dcmitype/StillImage" />
        <dc:title></dc:title>
      </cc:Work>
    </rdf:RDF>
  </metadata>
  <defs
     id="defs40" />
  <sodipodi:namedview
     pagecolor="#ffffff"
     bordercolor="#666666"
     borderopacity="1"
     objecttolerance="10"
     gridtolerance="10"
     guidetolerance="10"
     inkscape:pageopacity="0"
     inkscape:pageshadow="2"
     inkscape:window-width="1680"
     inkscape:window-height="987"
     id="namedview38"
     showgrid="false"
     inkscape:zoom="0.44375"
     inkscape:cx="320"
     inkscape:cy="240"
     inkscape:window-x="-8"
     inkscape:window-y="-8"
     inkscape:window-maximized="1"
     inkscape:current-layer="g8" />
  <g
     id="g34"
     transform="translate(87.887324,-4.5070423)"
     style="stroke:#000000">
    <g
       id="g8"
       style="stroke-linecap:round;stroke-linejoin:round"
       transform="matrix(1.020761,-0.43669951,0.38500392,1.1279554,78.03397,-29.328764)"
       inkscape:transform-center-x="-3.1527988"
       inkscape:transform-center-y="82.624062">
      <path
         d="m -98.366757,41.702733 14.833,-10.616 c 0.94978,-0.67975 1.9413,-0.9101 2.223,-0.51642 L 270.55924,522.23031 c 0.28177,0.39365 -0.25613,1.2579 -1.206,1.9376 l -14.833,10.616 c -0.94977,0.67975 -1.9412,0.9101 -2.223,0.51642 L -99.572757,43.640333 c -0.28172,-0.39368 0.25606,-1.2579 1.2059,-1.9376 z"
         id="path6"
         inkscape:connector-curvature="0"
         style="stroke-width:0" />
    </g>
    <g
       id="g32"
       style="stroke-width:0"
       transform="matrix(0.76577239,-0.30314312,0.27616884,0.84056782,-98.856333,100.99363)">
      <path
         d="M 216.87,123.83 C 167.289,166.051 170.441,224.15 173.774,282.3 71.204,226.155 13.914,145.98 1.894,41.76 48.101,75.337 99.913,90.624 167.244,55.255"
         id="path10"
         inkscape:connector-curvature="0" />
      <path
         d="m 320.01,1.0771 c 0,0 -78.949,74.936 -85.15,98.212 -4.9847,18.711 -26.314,-1.8119 -37.445,-17.657 -11.131,-15.8451 -21.745,-44.018 -2.8636,-39.723 21.542,4.9002 125.46,-40.832 125.46,-40.832 z"
         id="path12"
         inkscape:connector-curvature="0"
         style="stroke-linecap:round;stroke-linejoin:round" />
      <path
         d="m 156.58,42.154 19.896,-15.227 67.441,93.931 -20.484,14.389"
         id="path14"
         inkscape:connector-curvature="0" />
      <path
         d="m 214.42,118.27 9.8831,11.995"
         id="path16"
         inkscape:connector-curvature="0" />
      <path
         d="m 1.8877,41.763 c 12.021,104.21 69.323,184.4 171.89,240.54 -0.31799,-5.556 -0.63959,-11.109 -0.90878,-16.649 -87.886,-52.034 -139.72,-123.2 -155.51,-213.5 -5.2339,-3.2086 -10.386,-6.6922 -15.471,-10.387 z"
         id="path18"
         inkscape:connector-curvature="0" />
      <rect
         transform="matrix(0.3414,-0.23982,0.23139,0.32939,174.23,150.92)"
         x="98.075996"
         y="-205.03"
         width="20"
         height="211.42999"
         rx="3.7553"
         ry="1.3959"
         id="rect20"
         style="stroke-linecap:round;stroke-linejoin:round" />
      <path
         d="m 179.01,132.16 c -29.249,24.91 -27.376,59.203 -25.398,93.528 -60.537,-33.162 -94.363,-80.499 -101.48,-142.01 27.274,19.828 57.851,28.863 97.578,8.0008"
         id="path22"
         inkscape:connector-curvature="0" />
      <path
         d="m 163.78,137.43 c -22.829,19.443 -21.368,46.209 -19.823,73 C 96.708,184.547 70.306,147.6 64.751,99.59 c 21.288,15.476 45.153,22.528 76.161,6.2447"
         id="path24"
         inkscape:connector-curvature="0" />
      <rect
         transform="matrix(0.26686,-0.18746,0.29604,0.42143,107.86,168.64)"
         x="402.79999"
         y="-143.2"
         width="20"
         height="211.42999"
         rx="3.7553"
         ry="1.3959"
         id="rect26"
         style="stroke-linecap:round;stroke-linejoin:round" />
      <path
         d="m 1.0576,41.322 c 12.022,104.21 69.323,184.4 171.89,240.54 -0.0774,-1.3516 -0.15933,-2.7051 -0.23637,-4.0563 -98.338,-55.122 -154.05,-132.88 -167.12,-233.27 -1.5181,-1.0556 -3.0325,-2.1228 -4.5384,-3.2171 z"
         id="path28"
         inkscape:connector-curvature="0" />
      <rect
         transform="matrix(0.26686,-0.18746,0.30639,0.43615,90.5,176.19)"
         x="402.79999"
         y="-135.73"
         width="20"
         height="211.42999"
         rx="3.7553"
         ry="1.3959"
         id="rect30"
         style="stroke-linecap:round;stroke-linejoin:round" />
    </g>
  </g>
</svg>
