<?xml version="1.0" encoding="UTF-8"?>
<svg enable-background="new 0 0 403.406 336.023" viewBox="0 0 403.406 336.023" xmlns="http://www.w3.org/2000/svg">
 <path d="m154.628,51.829c.426,4.343-5.047,5.686-7.775,7.775-10.618,8.124-20.178,19.675-27.642,31.097-.275-7.193 9.699-11.603 11.229-19.867 6.728-6.805 15.121-11.946 21.595-19.004l2.593-.001z" fill-rule="evenodd"/>
 <path d="m209.91 57.012c-4.384 5.692-11.907 8.25-17.275 12.956 2.695-7.381 9.877-10.277 17.275-12.956z" fill-rule="evenodd"/>
 <path d="m150.308,69.105c.141-1.013 1.575-.729 2.591-.863-.138,1.012-1.574.729-2.591.863z" fill-rule="evenodd"/>
 <path d="m221.14 70.833c-1.502 3.681-5.092 5.272-8.638 6.909 2.661-2.52 3.869-6.495 8.638-6.909z" fill-rule="evenodd"/>
 <path d="m140.807,76.017c.266-1.172 2.163-.718 3.455-.865-.267,1.171-2.163.718-3.455.865z" fill-rule="evenodd"/>
 <path d="m207.32,81.2c2.878-.593-.074,3.57 0,3.455-2.144,3.295-8.222,7.606-9.502,11.229-.529-5.149 6.346-10.345 9.502-14.684z" fill-rule="evenodd"/>
 <path d="m197.817,82.063c1.292,1.3 4.925.258 4.32,3.455-2.052-.54-4.021-1.162-4.32-3.455z" fill-rule="evenodd"/>
 <path d="m127.849,85.518c1.733-.294 2.702.177 2.592,1.728h-2.592v-1.728z" fill-rule="evenodd"/>
 <path d="m181.407,86.38c.106-1.907 3.664-.366 5.181-.863-.107,1.908-3.664.367-5.181.863z" fill-rule="evenodd"/>
 <path d="m92.433,88.972c.108-1.907 3.664-.367 5.183-.863-.109,1.908-3.664.367-5.183.863z" fill-rule="evenodd"/>
 <path d="m116.62,91.564c1.982.678.84,5.347-1.729,4.32 .371-1.646 1.861-2.17 1.729-4.32z" fill-rule="evenodd"/>
 <path d="m122.666,91.564c-.377,1.063-1.106,1.775-2.592,1.728-.403-1.843 1.235-1.645 2.592-1.728z" fill-rule="evenodd"/>
 <path d="m93.295,95.021c-.872,1.43-3.667.938-5.181,1.726-.818-3.121 3.402-1.205 5.181-1.726z" fill-rule="evenodd"/>
 <path d="m173.632,95.884c.371-1.931 4.256-.35 6.046-.863-.373,1.931-4.258.349-6.046.863z" fill-rule="evenodd"/>
 <path d="m113.165,98.475c2.148.13.251,2.924 0,3.455-2.148-.13-.253-2.924 0-3.455z" fill-rule="evenodd"/>
 <path d="m89.841 101.07c-1.477 1.402-3.144 2.615-6.046 2.591 0.654-2.224 2.757-3.002 6.046-2.591z" fill-rule="evenodd"/>
 <path d="m169.312,103.658c2.732-.143 2.888,2.295 6.046,1.727-1.097,1.871-6.636.946-6.046-1.727z" fill-rule="evenodd"/>
 <path d="m166.72 108.84c2.338-2.28 4.462 2.982 8.638 1.727-2.464 2.406-6.929-0.514-8.638-1.727z" fill-rule="evenodd"/>
 <path d="m84.658 113.16c-1.477 1.402-3.144 2.615-6.046 2.592 0.786-2.093 3.471-2.287 6.046-2.592z" fill-rule="evenodd"/>
 <path d="m77.749,125.254c.213-1.087 1.718-.872 1.726,0-.767.531-1.545,1.042-1.726,0z" fill-rule="evenodd"/>
 <path d="m80.34 130.44c-0.714 2.164-3.026 2.732-4.32 4.318-2.272-1.773 2.061-4.215 4.32-4.318z" fill-rule="evenodd"/>
 <path d="m140.807,152.896c2.792-1.822 8.196,3.527 12.092.863-1.359,5.705-8.827-.349-12.092-.863z" fill-rule="evenodd"/>
 <path d="m100.21 158.94c0.132 2.517-3.503 2.624-4.32 1.729 0.733-1.285 2.781-1.252 4.32-1.729z" fill-rule="evenodd"/>
 <path d="m144.262,161.534c1.79-1.17 7.649.955 8.638,3.455-3.296-.736-5.495-2.569-8.638-3.455z" fill-rule="evenodd"/>
 <path d="m103.66 164.12c-2.389 1.065-4.625 2.285-7.775 2.591 0.364-3.09 4.48-2.431 7.775-2.591z" fill-rule="evenodd"/>
 <path d="m171.9 183.13c4.746-1.274 10.142 4.241 16.412 4.318-3.864 3.391-11.621-3.007-16.412-4.318z" fill-rule="evenodd"/>
 <path d="m101.94 183.13c-0.209 1.52-1.488 1.97-3.457 1.727 0.569-1.159 1.848-1.609 3.457-1.727z" fill-rule="evenodd"/>
 <path d="m183.13 190.9c-2.037 2.777-3.491-3.039 0 0z" fill-rule="evenodd"/>
 <path d="m168.449,193.494c6.364.269 14.654,6.072 21.596,8.64-6.724.091-15.138-5.589-21.596-8.64z" fill-rule="evenodd"/>
 <path d="m55.29,225.456c2.969-.377 4.84.341 6.909.863 .007,4.433-1.264,5.669 0,9.503-4.482-.228-2.289-6.321-7.774-3.455-.664-3.256 1.054-4.13.865-6.911z" fill-rule="evenodd"/>
 <path d="m29.374,229.776c.494-3.466-.731,5.108 0,0z" fill-rule="evenodd"/>
 <path d="m163.27 231.5c3.436 8.466-8.388 14.982-4.32 21.596-2.666-0.141-4.883 2.042-6.91 0 5.895-5.046 8.926-12.957 11.23-21.596z" fill-rule="evenodd"/>
 <path d="m50.97,240.14c.494-3.466-.731,5.11 0,0z" fill-rule="evenodd"/>
 <path d="m103.662,255.689c2.429.162 3.68,1.503 3.455,4.32-.768.381-1.543.759-1.727,1.727-3.9.11-4.119-4.395-1.728-6.047z" fill-rule="evenodd"/>
 <path d="m183.133,266.918c-1.809,1.725-2.276,3.745.866,4.32-1.266,2.306-4.74-.362-4.32-2.592 1.715-.01 1.097-2.356 3.454-1.728z" fill-rule="evenodd"/>
 <path d="m196.954,266.918c-1.741,3.118.087,4.182.863,6.911-2.756.74-2.671-1.359-4.318-1.728-.345-3.224.691-5.067 3.455-5.183z" fill-rule="evenodd"/>
 <path d="m249.646,272.102c1.103.195 1.134,2.578 0,2.591 .977,1.04 2.466,1.566 1.729,4.32-1.9-1.266-4.045-2.289-3.454-6.049 1.003.141 1.536-.189 1.725-.862z" fill-rule="evenodd"/>
 <path d="m394.77 285.92c-7.976 3.032-5.569-1.794 0 0z" fill-rule="evenodd"/>
 <path d="m397.359,285.922c.373-1.931 4.259-.35 6.047-.863-.016,2.511-4.881,2.042-6.047.863z" fill-rule="evenodd"/>
 <path d="m351.577,286.786c2.329-1.988 8.333-.305 12.095-.863h6.046c-5.301,1.596-12.308,2.148-18.141.863z" fill-rule="evenodd"/>
 <path d="m374.901,286.786c-.146-1.871 3.064-.39 4.319-.863 .146,1.873-3.064.392-4.319.863z" fill-rule="evenodd"/>
 <path d="m391.313,291.106c-6.956,4.081-19.113-.836-29.37.863 6.289-3.412 21.642-1.692 29.37-.863z" fill-rule="evenodd"/>
 <path d="m335.166,292.834c-2.391,3.367-11.185.332-14.686,2.591 .377,1.062 1.105,1.773 2.591,1.727-2.01,2.509-4.654-1.622-7.774-.863 3.51-3.809 14.671-4.171 19.869-3.455z" fill-rule="evenodd"/>
 <path d="m28.511,293.698c-1.941,2.726-9.194-.126-14.687.862-.094-1.85 10.514-.406 14.687-.862z" fill-rule="evenodd"/>
 <path d="m379.22,294.56c.106-1.907 3.664-.366 5.181-.862-.107,1.907-3.663.366-5.181.862z" fill-rule="evenodd"/>
 <path d="m35.42,298.88c-3.38,1.021-7.619-2.097-13.821-.863-.857-.833 13.244-2.538 13.821.863z" fill-rule="evenodd"/>
 <path d="m299.75,299.744c.139-1.013 1.572-.729 2.591-.863-.141,1.012-1.575.728-2.591.863z" fill-rule="evenodd"/>
 <path d="m321.342,300.607c12.41-1.986 28.486-.307 42.329-.863 1.543-.243 1.772.816.862.863-14.094.305-27.449,1.343-42.326.865-1.542.243-1.772-.816-.865-.865z" fill-rule="evenodd"/>
 <path d="m40.603,300.607c-6.065,3.111-10.343.97-20.73,1.729-2.345-.535-6.856,1.098-7.775-.863h8.638c5.445-1.468 13.147-.675 19.867-.866z" fill-rule="evenodd"/>
 <path d="m93.295,303.199c5.901-1.867 12.451,4.746 19.87,1.729-4.522,4.488-16.931-.463-24.188.862-.061-1.87 8.069.117 4.318-2.591z" fill-rule="evenodd"/>
 <path d="m381.812,304.064c-3.472,1.999-10.644.298-15.55.863 4.05-2.617 10.231-1.418 15.55-.863z" fill-rule="evenodd"/>
 <path d="m15.553,305.79c4.904-2.005 13.527-.294 19.867-.862-4.904,2.004-13.524.295-19.867.862z" fill-rule="evenodd"/>
 <path d="m123.529,304.927c.88.56.895,1.986 2.591,1.728-.106,1.908-3.664.367-5.181.863 .139-1.012 1.573-.729 2.59-.863v-1.728z" fill-rule="evenodd"/>
 <path d="m183.13 306.66c6.961 0.075-9.42 1.413 0 0z" fill-rule="evenodd"/>
 <path d="m152.899,307.518c.109-1.907 3.664-.366 5.183-.863-.106,1.908-3.663.367-5.183.863z" fill-rule="evenodd"/>
 <path d="m165.857,307.518c.139-1.012 1.575-.729 2.591-.863-.14,1.012-1.574.729-2.591.863z" fill-rule="evenodd"/>
 <path d="m285.06 307.52c-2.702 1.328-6.686 1.375-10.364 1.729 2.114-3.261 6.312-2.176 10.364-1.729z" fill-rule="evenodd"/>
 <path d="m395.633,307.518c-6.348,1.878-13.65,1.763-20.732.863 1.924-1.885 14.692-2.271 20.732-.863z" fill-rule="evenodd"/>
 <path d="m91.569,308.381c.139-1.013 1.575-.729 2.591-.863-.14,1.013-1.574.73-2.591.863z" fill-rule="evenodd"/>
 <path d="m103.662,308.381c.141-1.013 1.575-.729 2.591-.863-.138,1.013-1.574.73-2.591.863z" fill-rule="evenodd"/>
 <path d="m188.316,308.381c.141-1.013 1.575-.729 2.592-.863-.141,1.013-1.575.73-2.592.863z" fill-rule="evenodd"/>
 <path d="m183.999,308.381c1.061.377 1.773,1.106 1.726,2.592-1.396.243-1.488-.816-2.592-.863 .164-.699.867-.861.866-1.729z" fill-rule="evenodd"/>
 <path d="m267.788,309.247c.373-1.933 4.256-.35 6.046-.865-.459,2.953-4.163,1.323-6.046.865z" fill-rule="evenodd"/>
 <path d="m353.305,309.247c1.76-1.981 7.173-.313 10.366-.865-1.76,1.982-7.173.313-10.366.865z" fill-rule="evenodd"/>
 <path d="m100.21 309.25c-6.185 2.581-9.916-0.965 0 0z" fill-rule="evenodd"/>
 <path d="m235.83 309.25c3.182 1.136 6.688 1.952 11.229 1.727-1.558 3.198-10.562 1.446-11.229-1.727z" fill-rule="evenodd"/>
 <path d="m297.16 309.25c-1.897 2.638-5.533-0.997 0 0z" fill-rule="evenodd"/>
 <path d="m87.25,310.973c.108-1.907 3.666-.366 5.183-.863-.107,1.907-3.664.366-5.183.863z" fill-rule="evenodd"/>
 <path d="m285.93 310.97c7.358-2.9 6.185 1.739 0 0z" fill-rule="evenodd"/>
 <path d="m116.62,310.973c.735-.158.814.337.863.865 2.973,1.573 7.916.716 12.958.863 3.906.115 9.936-1.487 11.229,1.729-8.079-.51-13.39,2.436-22.458.863-1.667-.29-2.777-1.705-4.32-1.729-7.118-.106-14.125,3.744-21.596,1.729-3.472,1.566-.483,4.532-6.909,3.454 .25-1.008 4.899-2.493.863-2.592 6.803-3.91 17.987-2.717 28.507-3.454 .837-.059.671-1.029.863-1.728z" fill-rule="evenodd"/>
 <path d="m219.413,312.702c.141-1.013 1.575-.729 2.592-.863-.139,1.012-1.576.728-2.592.863z" fill-rule="evenodd"/>
 <path d="m295.429,312.702c-.145-1.874 3.064-.393 4.32-.863 .145,1.872-3.065.389-4.32.863z" fill-rule="evenodd"/>
 <path d="m157.22,314.43c-4.422-.681-6.277,1.21-10.367.863 1.447-1.494 8.855-5.059 10.367-.863z" fill-rule="evenodd"/>
 <path d="m163.27 312.7c-0.695 1.833-3.557 3.367-5.183 1.729 0.096-2.209 2.892-1.717 5.183-1.729z" fill-rule="evenodd"/>
 <path d="m259.15,313.565c.106-1.908 3.663-.367 5.183-.863-.109,1.907-3.666.366-5.183.863z" fill-rule="evenodd"/>
 <path d="m191.771,317.884c4.098-2.51 16.033-3.297 23.324-2.591 7.218.698-1.117.923-.863.862-3.896.927-13.755,2.073-22.461,1.729z" fill-rule="evenodd"/>
 <path d="m355.03 316.16c-6.458 3.199-14.832 2.258-22.459 1.729 5.195-2.867 14.777-1.347 22.459-1.729z" fill-rule="evenodd"/>
 <path d="m12.098,318.748c2.349-2.749 5.477-.081 10.366-.863 1.134-.115 6.249-.132 3.455.863h-6.046c-2.442,1.065-5.332,1.065-7.775,0z" fill-rule="evenodd"/>
 <path d="m49.241,317.884c2.9-1.997 9.488-.303 13.821-.863-4.375,2.428-8.828,3.073-13.821.863z" fill-rule="evenodd"/>
 <path d="m66.519,317.884c.371-1.931 4.256-.35 6.046-.863-.373,1.932-4.258.35-6.046.863z" fill-rule="evenodd"/>
 <path d="m253.103,318.748c-4.814-.743-9.64.629-14.687.863-6.244.292-13.072-1.604-17.275,1.729-.733-1.858-3.18-2.004-6.046-1.729 6.815-1.788 16.954-1.437 26.778-1.727 3.753-.11 9.225-3.096 11.23.864z" fill-rule="evenodd"/>
 <path d="m4.323,318.748c.35-1.909 5.064-1.155 3.455,1.729-1.277-.45-2.176-1.279-3.455-1.729z" fill-rule="evenodd"/>
 <path d="m269.516,318.748c-.849,1.396-2.307,1.988-3.457.863 .752-2.513 1.293-.97 3.457-.863z" fill-rule="evenodd"/>
 <path d="m157.22,318.748c3.435,1.274 7.271-.748 9.501.863-1.141,1.083-9.713,2.269-9.501-.863z" fill-rule="evenodd"/>
 <path d="m122.666,321.339c-9.073-.733-12.44,1.641-19.004,0 2.798-.569 8.906-1.647 12.958-1.729 2.078-.039 6.174-1.231 6.046,1.729z" fill-rule="evenodd"/>
 <path d="m218.549,321.339c-2.014,3.457-10.491.449-13.82,2.592 2.125-3.347 9.988-.953 13.82-2.592z" fill-rule="evenodd"/>
 <path d="m263.47 321.34c-1.914 3.555-10.027 0.912-14.685 1.729 3.382-2.093 9.211-1.733 14.685-1.729z" fill-rule="evenodd"/>
 <path d="m341.212,322.203c-4.118,4.398-12.264-.562-19.005.865 3.733-4.362 13.243-.169 19.005-.865z" fill-rule="evenodd"/>
 <path d="m154.628,324.794c-4.963-.22-11.012.647-14.686-.863h-9.501c1.198-1.97 6.012-.322 8.638-.863 3.78-.203 14.607-3.401 15.549,1.726z" fill-rule="evenodd"/>
 <path d="m178.82 324.79c-2.214-1.369-6.837 0.826-11.231 0 1.786-2.086 10.79-4.286 11.231 0z" fill-rule="evenodd"/>
 <path d="m308.387,323.068c-4.167,4.627-14.081.514-21.596.863 2.865-2.588 13.836-.802 21.596-.863z" fill-rule="evenodd"/>
 <path d="m183.133,323.068c1.396-.243 1.488.816 2.592.863 .343,1.677-3.934,1.262-2.592-.863z" fill-rule="evenodd"/>
 <path d="m98.479,327.385c-12.339,1.887-16.012.676-26.779,0 3.906-7.111 17.152.247 26.779,0z" fill-rule="evenodd"/>
 <path d="m83.794,324.794c-.145-1.874 3.065-.391 4.32-.863 .146,1.873-3.064.392-4.32.863z" fill-rule="evenodd"/>
 <path d="m49.241 324.79c-7.457 2.562-10.534-1.003 0 0z" fill-rule="evenodd"/>
 <path d="m60.471,324.794c-1.58,3.367-9.887,1.978-4.318.865 1.587-.318 1.832-.911 4.318-.865z" fill-rule="evenodd"/>
 <path d="m286.792,327.385c-3.935,2.14-11.891,2.381-18.141,2.592-4.367.149-11.352.923-12.093-2.592 10.159.582 20.931-2.576 30.234,0z" fill-rule="evenodd"/>
 <path d="m200.41 327.38c-2.519 4.306-5.923 2.583-12.093 3.457 0.26-4.925 9.013-1.353 12.093-3.457z" fill-rule="evenodd"/>
 <path d="m215.96 328.25c-1.897 2.639-5.533-0.997 0 0z" fill-rule="evenodd"/>
 <path d="m149.44 330.84c-2.244 3.363-14.663 1.473-18.141 1.727 4.447-4.069 10.726-0.972 18.141-1.727z" fill-rule="evenodd"/>
 <path d="m182.27,332.569c-5.59,2.615-9.292-1.665-17.278-.863 1.345-1.974 13.727-.653 17.278.863z" fill-rule="evenodd"/>
 <path d="m56.153,333.432c4.55.97 5.861-.149 11.229,0 1.575.671-.518.929-1.728.865-3.05-.095-9.491,3.975-9.501-.865z" fill-rule="evenodd"/>
 <path d="m208.18 334.3c4.231-3.197 5.177 2.662 0 0z" fill-rule="evenodd"/>
 <path d="m287.655,249.643c-1.727-2.017-6.047-1.438-7.775-3.455 1.341-2.969 9.427.771 12.095,0-.532-2.059-3.764-1.419-2.591-5.183 1.385-1.496 2.614-3.144 6.046-2.592 1.034-6.195 1.063-10.164.863-13.821 5.047.674 1.202,4.32.865,6.909-.505,3.884-.332,8.643-1.729,13.821 .213,1.087 1.718.872 1.729,0 1.302,1.642-4.232,3.794-2.592,8.64 2.941-.775 6.844-8.925 5.184-8.64-2.017-2.073 4.51-2.933 5.183-5.183-.968-3.065-3.721-4.342-2.592-9.501 2.727.422 3.05-1.557 6.047-.863 1.189-1.115.854-3.753.863-6.047 3.721,2.015-4.252,15.222 1.729,17.276-.144-1.52 1.208-3.061 3.454-4.32-.688-2.657-1.734-2.767-4.319-1.727 4.373-2.397 6.203-9.471 12.957-6.911-1.246-.795-3.335-8.161-4.317-12.093 3.178-1.347 3.046-7.935 5.181-7.774-1.893-3.922-4.685-12.033-9.501-7.775-2.342-1.52-2.508-7.284.863-7.774 3.683.925 2.536,6.68 7.774,6.047 2.102-.706-1.711-4.555.863-6.047 2.643-.626 2.543,1.49 5.184.863-.328,4.926-2.219,4.478 0,8.64-2.473,3.17-4.295,11.159 0,13.821-2.146,3.742-3.178,7.684-1.727,12.956 3.306-.725 1.164-6.899 6.047-6.047 .023.84 1.057.672 1.728.865 .275,3.442.047,6.381-1.728,7.772 1.664,1.75 3.476,2.01 6.046.865 3.374,2.673-.49,12.585 4.319,13.821 .407,2.711-2.324,2.28-2.591,4.318 2.323,9.978.573,25.917 4.317,34.553 .447,1.032 1.053,1.797 2.592,1.727-4.352,2.884 2.172,6.044 2.592,9.503-7.502,1.564-5.77-2.715-10.366-2.591 .703-1.512-.292-2.761-.863-4.32-.275-.748-1.81-3.131-1.727-2.592-.115-.735 1.637-.771 1.727-1.727 .818-8.656-2.664-22.503-2.592-32.824-2.251,7.297-6.294,14.276-6.046,21.595-1.824.768-2.554,2.631-5.184,2.592-5.479,13.235-20.805,16.628-31.097,25.051-16.702-.838-30.363,3.082-44.055,4.317-.786-1.517-3.028-1.579-4.319-2.591-8.919-.103-16.197,3.144-23.322,2.591-8.389-.647-20.856-7.369-31.962-.862-11.611.354-21.749-1.277-30.233-1.729-1.385-1.494-3.229-2.53-5.183-3.455-8.192.957-15.198,3.199-23.322,2.592-4.12-.307-7.25-2.035-11.229-1.729-2.466.191-4.445,1.727-6.911,1.729-7.161.008-15.132-3.028-22.459-3.455-3.804-.222-7.504.82-11.229.863 .854,2.888 6.76.727 8.638,2.592 .412-.674-7.966,3.358-3.455,1.729-3.487,1.259-4.838,1.453-10.366,2.591-.618,2.345 4.073-.618 3.455,1.727-.618,4.277-10.357-.566-11.229,3.457 5.42.763 12.779.593 19.004,2.592-10.554,3.668-26.033-3.951-37.145-.865-4.625,1.285-5.953,5.008-10.364,6.911 1.628,2.905-3.911,2.83-.865,4.318-2.999,3.761-5.49-1.624-7.775,1.728 6.458,2.181 17.56-.281 24.188,1.729-5.002,3.632-14.565-1.504-19.867,2.592 3.977,2.163-3.517,2.617-6.91,2.59 .872-1.431 3.668-.938 5.181-1.727-5.984-3.659-8.742,3.331-12.956,4.317-1.965-1.19 4.744-.943 3.455-4.317-3.538.207-4.866,2.621-8.638,2.592 2.457-3.508 6.33-2.197 11.229-4.32 1.072-2.095 2.312-4.021 4.318-5.183-1.886-1.831-4.721,2.724-6.909,3.456 .484-2.852 7.003-7.182-3.455-5.183-1.663.364-3.118-.593-1.729-.865 4.478-.128 8.586-.627 12.092-1.727 1.172-.269.718-2.163.865-3.455 2.003.275 3.316-.141 4.318-.865 2.835-6.131 5.699-6.931 11.229-10.366-.266-1.172-2.161-.716-3.455-.862 10.852-2.725 21.894,1.945 32.825-1.729-2.747-3.159-7.726,2.046-9.501,0-2.739-3.754 4.056-5.531 6.046-4.318-.569,1.159-1.846,1.609-3.455,1.727 2.903,2.568 7.542-.481 10.364-.863-1.748-2.57-7.636-1-8.638-4.318-6.034-.274-8.359,3.157-12.956,4.318-4.799-1.247-6.852-5.243-10.366-7.774-.669,2.208 3.38,3.973.863,5.183-4.085-1.958-6.585-5.507-8.638-9.501-4.97.075-9.977.186-13.821-.865 1.673-3.687 7.867-.038 11.229,0-3.853-10.837-15.253-17.738-16.413-28.505-2.939,2.72 1.145,5.716 1.729,7.774-2.178-1.566-4.846-2.641-5.183-6.046-5.81-1.292-7.116-5.593-11.229-12.958-2.074-3.71-5.933-8.391-6.048-13.821-.194-9.215 8.101-18.322 6.912-31.962-.22-2.513-2.351-4.921-2.592-6.909-1.172-9.699 7.351-12.235 8.638-19.004-.164-.699-.868-.861-.863-1.729-3.282-1.895-3.278,1.732-6.912,1.729-1.11-2.238-1.786-2.715-4.318-1.729-.582-4.324.799-6.686.863-10.366 3.233-2.236 7.828-3.114 12.092-4.318v-8.638c4.859.037 3.538,6.253 6.912,7.775 2.302-1.443-.479-7.966 1.729-9.503 4.951,3.399 3.455,13.246 7.772,17.275-.366,14.893-9.763,20.76-12.956,32.826 3.845.424 6.174-3.734 8.638-6.047 14.479-13.597 30.978-28.526 45.781-43.191-2.935-55.341 19.051-85.758 55.286-101.93-.352-1.664-3.35-.682-2.591-3.455 16.423.237 35.581,4.91 50.964,0 .827,3.13-3.728.878-4.318,2.591 .795,1.509 2.7,1.906 5.183,1.728-17.474,2.311-35.376-3.876-50.966,1.727-4.516,1.623-10.183,5.458-15.549,9.503-7.472,5.633-12.163,10.049-18.139,18.139-5.578,7.553-9.571,12.819-12.958,22.459-4.623,13.154-5.616,29.057-5.183,47.511 3.73-2.029 5.778-5.742 9.503-7.775-1.999-1.379-5.411,3.195-6.912,5.184 .603-5.365 7.086-7.295 11.229-10.367 9.518-7.059 18.55-16.999 26.779-25.05-.139-1.012-1.575-.729-2.592-.863 1.483-2.546 6.82-1.242 8.638-3.457 .318-1.468-.673-1.628-1.726-1.727 2.636-.558 18.337-11.4 11.229-12.094-.147-1.874 3.062-.39 4.318-.863 1.63-1.249 3.83-1.929 3.455-5.183 2.477,1.845 4.819-2.217 6.912-3.455-.65-2.805-8.444,1.532-7.775-2.592 4.802-.094 10.477.686 12.958-1.729 .317-1.468-.673-1.628-1.729-1.726 3.444-.899 9.495-3.721 7.775-6.912 11.858-6.571 19.499-17.358 29.37-25.915-3.256-.664-4.13,1.054-6.912.864 2.255-2.366 14.179-2.513 15.55-8.638-2.383-2.224-7.434-1.78-10.367-3.456 .927-2.24 2.1-4.236 1.729-7.774 4.156-.452 7.372-1.841 11.229-2.591-.605-3.773 1.468-4.866.863-8.639-7.259-3.029-17.061-4.402-25.05-4.319 2.696-5.31 7.61-4.103 13.821-4.319 3.028-.105 5.603-2.77 8.638-3.456 3.076-.693 6.168,1.131 8.638-.862 .313,5.351-3.035,14.134-2.592,22.459 2.428,2.756 6.773,3.594 9.503,6.047 .377,2.969-.341,4.841-.863,6.91-2.097,1.636-5.224-1.747-7.774,0 .149,6.982 1.976,6.292 8.638,9.502 5.386,2.595 14.096,8.177 20.73,10.365 4.759,1.569 11.846,1.639 15.55,2.592 18.277,4.699 29.44,14.823 41.463,19.867-5.147,3.634-11.769-.893-17.276-1.726-6.259-.949-14.856-3.704-21.596-2.592-6.347,1.046-12.488,6.711-17.275,10.364-5.532,4.222-10.526,8.687-13.82,13.823 10.922,48.391 23.939,94.688 35.416,142.528-3.681-3.27-4.218-10.854-6.048-18.14-9.655-38.41-21.251-81.007-30.234-120.934-5.767,4.023-.815,9.797 0,13.821 3.244,15.967 6.141,32.672 9.504,49.238 4.692,23.111 11.146,43.381 14.684,68.241 9.248,10.045 21.992,16.592 33.69,24.186 3.989-2.631 9.867-3.375 12.955-6.908zm-10.364,8.638c4.269,2.214 9.829-.874 11.229-4.318-2.941-3.685-8.898,1.913-11.229,4.318zm-213.364,50.966c-2.461.972-8.25-1.069-9.503,1.727 6.901.438 9.06.618 14.686-.863-2.308-5.643-5.558-.717-5.183-.864zm69.105-180.538c-.422-5.049-8.12-2.822-10.366-6.046 3.078-.559 7.992,3.152 10.366-.865-2.937-3.397-11.266-1.405-14.684-4.318 6.47-1.179 12.913,4.06 16.41-1.729-.944-2.069-10.609-.976-14.684-2.592 4.898-1.504 11.537-.969 15.55.863 1.485-5.805-4.201-4.437-6.912-6.046h8.638c.375-4.335 2.18-4.75 3.457-6.909 .886-1.502 2.229-4.137 2.591-5.183 1.609-4.674.303-3.003 3.455-6.912 2.551-3.163 2.048-5.166 2.592-8.638-4.284,2.534-13.7,8.18-8.638,12.095-4.165-2.498-10.428,2.154-6.912,4.317-4.508-.443-8.548,3.101-6.91,6.046-3.292.164-5.684,1.228-6.046,4.32 1.253.473 4.463-1.01 4.318.863-3.146-.266-5.622.139-7.774.865-1.743,4.391-5.414,4.397-7.775,9.501-6.261,2.394-11.21,8.785-19.002,16.413-5.419,5.303-15.409,11.675-16.415,16.413-.545,2.575.612,5.414 1.729,7.775 3.444-3.755 6.564-7.833 11.229-10.366 .535-2.344-1.096-6.856.865-7.775-.254,13.787 2.419,24.647 5.181,35.417 3.12.759 5.765-3.372 7.775-.863-3.548.193-5.343,2.142-6.91,4.317 2.238,4.097 2.786,9.885 6.046,12.958 3.813-2.521 9.173-3.495 12.958-6.046-2.971-6.276-6.673-16.613-7.775-25.914-.618-5.215-.85-11.639.863-15.549-.936,7.27 1.381,11.289 1.729,17.275 1.537.478 3.587.443 4.318,1.729-2.003-.277-3.316.139-4.318.863 1.468,6.594 13.604,2.521 18.139,6.046-4.393.816-9.301-1.907-16.413-.863 .32,4.863 8.489,1.878 11.231,4.32-2.104,2.323-6.896.034-9.503,0 .124,4.194 1.362,7.276 2.592,10.364 6.545.654 14.675-.277 19.004,2.592-3.056.761-4.45-2.219-5.183.865 2.266.428 10.875,2.403 9.501.863-1.607-.12-2.886-.569-3.455-1.729 1.52-.497 5.077,1.044 5.183-.863-7.979-3.636-17.133-3.042-25.05-5.184 7.679-2.484 15.598,2.244 23.322,2.592-4.007-6.357-16.956-3.774-24.185-6.911 8.491-.141 14.224,2.477 22.459,2.591-1.588-3.593-7.515-2.852-10.367-5.181 3.772-.607 4.866,1.469 8.638.863 .769-4.514-6.532-.953-6.046-5.184 2.726-1.27 5.151,3.967 5.183,0-4.004-3.77-11.534-4.015-17.276-6.046 6.95-.616 10.407,2.261 16.413,2.591-1.023-7.329-13.075-3.627-17.278-7.774 7.391.863 9.635,1.652 16.413,2.591-2.208-7.293-14.771-4.232-21.596-6.911 6.315-3.734 18.569,5.995 21.596,0-4.993-4.508-17.062-1.939-21.596-6.91 7.074,1.564 14.966,2.31 21.596,4.318-2.242-7.834-16.069-4.085-21.596-8.638 7.528.825 14.226,2.477 21.596,3.455-2.037-7.076-16.802-6.025-25.05-6.91-.384,1.633 1.174,5.207-1.729,4.32 .036-8.783.469-10.923 1.729-19.87 7.628,2.742 17.525,3.211 26.779,4.324zm-10.366,0c-3.414-.861-13.789-3.613-15.549,0 7.866,1.711 18.586,4.923 25.052,5.183-.309-3.602-5.577-4.194-9.503-5.183zm-4.318,3.455c-3.826-.768-11.436-3.693-12.095.863 .846,2.035 4.985.775 6.046,2.591-2.63.25-5.895-.136-6.046,2.592 9.821-1.816 18.736,5.713 25.05,1.728-4.961-1.948-11.952-1.869-16.413-4.32 6.869-.533 10.673,1.997 16.413,2.592 .035-4.482-7.989-5.049-12.955-6.046zm79.469-125.253c.125-1.021 1.539-1.959 0-2.592-.124,1.021-1.536,1.958 0,2.592zm-2.589,25.914c3.046-.122 2.459-3.875 3.455-6.047-3.722-.553-3.136,3.2-3.455,6.047zm-1.728-6.91c-1.499,2.422-2.264.812-5.184.863v5.183c2.641-.624 3.148.883 5.184.864 .651-1.881 3.396-6.079 0-6.91zm8.637,3.454c2.073-2.074-2.834-2.237-2.592-.863-.01-.061 2.924.532 2.592.863zm-3.454,1.729c-.732,5.109.494-3.466 0,0zm2.591,10.365c-.25-2.63.136-5.896-2.591-6.046-.195,3.073.581,5.175 2.591,6.046zm-12.095,0c-1.381,3.226-5.373,3.84-6.046,7.775 3.474-.595 4.932.827 7.775.863 1.117-1.577 4.876-8.404.863-9.501-1.901.979-.06,5.698-2.592,6.046-.236-1.514 2.434-4.311 0-5.183zm13.821,8.638c-.101-3.067.624-6.958-2.592-6.91 .086,3.082.405,5.932 2.592,6.91zm-3.455-3.455c.237-1.176-.535-3.373-.863-1.728-.234,1.176.535,3.373.863,1.728zm6.047,4.319c5.354-.725 10.95,2.844 14.686.864-5.564-2.211-10.102-5.447-16.412-6.911-.088,2.679 1.054,4.127 1.726,6.047zm-44.055,138.211c-9.279-.016-16.25-6.678-22.458-6.912-1.315,4.482 3.947,2.39 4.32,5.184-1.104-.047-1.198-1.106-2.591-.863 .622,5.011 4.343,7.987 9.501,6.046-2.848,1.867 3.318,3.971 3.455,2.592-.968-.184-1.345-.959-1.727-1.729 4.107.953 11.187,6.613 13.821,3.457-1.362-1.808-4.816-1.52-6.046-3.457 5.97-1.123 10.597,3.444 16.413,6.911-2.786.425-5.106-4.032-6.912-1.728 1.643,2.101 5.929,1.558 6.912,4.319-1.969,1.188-3.248-2.227-3.457,0 3.12,1.528 9.667,8.396 11.232,3.455 4.056,0 7.517,5.117 10.364,3.454-2.383-2.814-11.396-3.553-10.364-6.909 4.073,1.128 7.983,6.965 12.956,4.318-1.049-2.406-3.638-3.271-6.046-4.318 1.279-2.717 4.465,3.278 4.32-.863-3.478-2.412-.916-6.983-6.048-8.64 3.996-2.828-1.185-10.705-5.181-11.229 2.259-1.008 3.714,2.666 3.455-.863-4.674-5.979-15.799-5.509-21.596-10.366 7.79-.392 14.124,8.233 19.867,4.32-5.582-4.497-15.008-5.149-20.732-9.503 7.449-.266 14.918,7.748 19.869,4.32-6.029-4.337-15.594-5.136-21.596-9.5 7.879.758 12.174,5.102 19.867,6.046-.616-5.151-7.109-6.155-11.229-7.774-4.828-1.899-10.143-3.284-13.821-6.046 9.168,1.483 15.637,5.669 23.324,8.638 2.391-1.843-1.599-4.706 1.726-5.183 2.769,21.418 9.663,38.709 19.004,53.555 2.996,1.613 7.237,3.289 8.638,4.32 5.162,3.796 8.47,10.786 14.687,11.229-7.866-6.242-13.441-14.775-19.869-22.459 4.332.175 8.478,1.062 5.183,4.318 1.294,1.012 3.533,1.074 4.32,2.591-.337,1.234-1.038,1.458 0,2.592 3.729.133 3.407,3.862 5.183,6.049 .629.775 3.033.851 3.455,1.727 .245.511-.393,2.21 0,2.591 2.086,2.035 6.666,2.752 8.638,5.184 2.228,2.747 3.832,7.525 7.774,6.046-23.556-19.055-43.17-52.253-40.6-92.427 1.537-23.989 12.809-44.826 29.37-58.741 11.936-10.027 25.236-15.641 44.055-12.092-2.563.004-4.476-2.281-6.911-3.455-3.832-1.85-7.376-1.984-11.229-3.457-6.042-2.308-7.276-4.184-13.821-1.727-6.43,2.413-11.266,4.644-16.412,5.183 5.75-2.026 8.821-6.73 16.412-6.911-4.676-4.759-12.949-3.738-19.867-5.184-11.76-2.455-26.329-5-40.6-5.183-3.954,4.697-13.324,10.004-13.821,14.687 4.885-4.049 11.427-11.023 18.141-10.366-11.581,5.984-20.257,14.87-29.37,23.322v3.457c-21.216,20.521-28.942,64.761-18.141,98.473 8.225,2.432 14.396,6.912 23.324,8.641 1.223-5.256-5.025-3.037-6.046-6.049 2.44-.714 2.238,1.219 4.318.865-13.163-44.73 4.667-93.042 31.962-112.296-10.307,13.015-22.879,23.765-27.642,42.326 2.153,1.59 6.88.607 7.775,3.455-2.061-1.394-5.535-1.377-7.775-2.592-.839,3.193-3.406,4.659-2.591,9.503 3.926.106 6.048,2.014 8.638,3.455-4.073.042-5.275-2.788-9.501-2.592-.22,2.95-2.185,4.152-1.729,7.775 2.986.759 5.984,1.502 7.775,3.455-3.176-.279-4.78-2.129-7.775-2.591-1.247,1.922-2.169,4.167-1.729,7.774 1.895,1.85 5.113,2.374 6.912,4.32-3.438.558-3.474-2.287-6.912-1.729-1.758,5.138 4.469,5.464 7.775,6.911 5.39,2.359 11.059,4.499 17.278,5.184v-4.32c-5.117.507-7.775-1.44-10.366-3.455 3.968.35 6.581,2.057 10.366,2.591-3.105-8.989-17.772-6.417-23.324-12.958 8.31,1.481 14.085,5.494 22.459,6.912-1.102-6.385-10.682-4.292-13.821-8.64 4.45,1.311 8.538,2.981 13.821,3.457 .271-6.893-8.806-4.439-12.093-7.775 5.522-.339 7.914,2.451 12.958,2.592 1.223-4.399 2.413-7.924-1.729-9.503 1.633-.194 1.905.974 3.455.865 2.56-8.629 3.747-17.38 11.229-24.187-7.834,14.042-13.621,35.425-11.229,54.421-1.231.207-1.456,1.421-2.591,1.726-9.537-1.402-15.875-6.006-24.188-8.638 .561,4.23.151,4.058 0,8.638 2.298.584 4.399,1.36 6.049,2.591-2.641.625-3.148-.882-5.183-.863-1.01,11.952 3.066,18.817 11.229,21.595-4.94,1.196-4.03-3.456-8.638-2.591 3.659,6.992 14.499,6.809 19.867,12.092-7.193-1.157-11.112-5.588-18.141-6.909 5.023,6.206 15.416,7.044 21.596,12.093h6.046c-1.437,2.713 3.214,3.529.865,4.32-8.073-4.888-17.832-8.084-26.779-12.095-.004,2.346 3.632,4.045 0,5.183 .626-2.359-1.719-1.741-1.732-3.456zm7.775,12.092c1.021.126 1.958,1.539 2.592,0-1.021-.123-1.959-1.536-2.592,0zm-13.821-126.117c.889-1.473 5.936-3.199 3.455-5.183-.269,2.093-5.316,3.822-3.455,5.183zm-4.318,4.32c.207-1.232 1.421-1.458 1.726-2.592-1.779-.756-3.878,2.241-1.726,2.592zm59.602,31.097c6.912,35.562 12.843,73.772 19.004,110.57 3.387,2.947 4.975,7.695 9.503,9.501-8.111-41.127-17.486-80.989-25.915-121.798-.182-.97-.959-1.345-1.727-1.728-.283,1.17-1.217,1.648-.865,3.455zm-8.638,25.915c-3.563,35.076 8.521,63.069 23.324,78.606-.279-.29 1.473,5.49 2.589,1.729-5.268-31.34-12.131-68.461-18.139-101.93-.189-.673-.725-1.004-1.729-.865-2.358,7.037-5.237,14.518-6.045,22.46zm-114.887,26.777c2.125-2.745.398-9.002 0-12.093-6.72,2.361-14.58,10.835-8.638,18.141 .207-.939 1.422-2.073 1.729-.865-.767,1.537-2.413,2.197-1.729,5.183 3.223.919 1.368-3.239 4.32-2.592-1.215,2.381-5.122,5.744-1.729,7.775 .682-1.678 3.137-6 4.32-4.318-2.587,1.732-3.809,4.829-3.457,9.501 3.214.332 1.598-4.16 4.32-4.32-1.055,2.69-2.012,5.478-1.729,9.504 2.943.639 1.424-3.185 3.457-3.455-1.558,2.462-2.632,11.963.863,7.772-.262,2.017-1.843,3.724.863,4.32 .669-2.786 1.805-5.104 3.455-6.91-.188,3.915-4.115,9.056-.863,11.229-.595-2.875 1.786-1.394 2.591-.865 .305-2.574.499-5.26 2.592-6.046 .194.671.023,1.705.863,1.729-.477-1.539-.443-3.587-1.726-4.32-1.618,1.84-1.411,5.501-3.457,6.912 .42-3.9 2.76-5.878 3.457-9.504-.767-1.536-2.413-2.194-1.729-5.183-3.832-.09-2.688,4.8-5.183,6.048 .068-4.829 4.26-5.53 3.455-11.231-2.772-.756-1.79,2.242-3.455,2.592 4.498-5.262.043-13.512-2.59-19.004zm12.094,48.374c-1.328-4.143-1.241-9.703-2.592-13.82-2.175,4.49-.454,11.751 2.592,13.82zm12.093,38.872c2.272-.896 5.3-1.034 8.638-.863 .94-5.972 8.938-4.883 8.638-12.093-25.539-16.826-46.418-37.844-54.421-71.699-.934-3.953.729-9.948-3.455-12.956-17.86,16.404-34.978,33.55-53.556,49.237-1.611,12.826 10.62,18.549 19.867,23.322 .462-3.855 5.26-3.378 4.318-8.638-3.284-1.271-.168,3.861-3.455,2.592 .678-7.577-.665-11.954 3.455-15.55 5.347,1.853 4.478,9.921 6.912,14.687 2.029-.277 3.242-1.366 6.046-.865 4.618-7.071 1.155-17.354 7.774-21.596-.607,9.184-5.777,13.802-5.183,24.188-2.026.274-1.933,2.674-3.455,3.456-.375-5.213-4.512.418-7.774,0 .132,3.898 3.022,5.041 3.455,8.638 2.777.759 1.185-2.847 3.457-2.591-2.408,2.839.499,5.896 3.455,6.046 .134-1.017-.149-2.453.863-2.592v2.592c14.727,3.54 29.319,14.036 45.783,10.366 .514-1.79-1.068-5.675.863-6.048 2.082-.352 1.877,1.579 4.32.865 3.069-2.402.846-10.096 4.318-12.095-1.505,6.877-3.702,14.975-.863,21.597zm-90.701-86.381c-.731,5.109.494-3.465 0,0zm1.728,4.318c-1.142-.009-.791-1.513-1.729-1.727-.988,1.772 1.356,4.118 1.729,1.727zm-2.591,1.728c-.695,5.231 3.96.577 0,0zm-6.049,17.277c.149-1.292-.307-3.188.866-3.455v3.455c3.203,1.118 3.431-5.115 1.726-6.047-1.796.427-5.381,6.6-2.592,6.047zm-4.317,8.637c1-.612-2.027-3.711 1.726-3.455-.526.806-2.01,3.187.865,2.592 .882-1.222.978-9.002-2.591-8.638-.827,2.72-1.891,10.659 0,9.501zm114.888-9.501c-2.626.541-7.44-1.106-8.638.863 2.625-.541 7.44,1.106 8.638-.863zm-24.188,11.23c-.189,1.803 2.042,3.252 3.455,6.046 3.508,6.933 3.77,8.041 7.774,12.958 5.292,6.496 11.504,15.046 19.004,17.275 1.228-1.468.644-7.028 3.455-4.317-.049,3.118-2.153,4.181-2.592,6.909 4.719,1.04 4.887,6.63 10.366,6.911 3.945-14.507 9.542-31.892 10.366-46.646-5.475-1.618-5.792,4.115-6.911,6.909-4.597,11.489-4.847,24.626-10.367,32.825 3.135-16.051 7.413-27.542 11.232-41.463-7.735-3.833-44.335-11.149-45.782,2.593zm38.008,76.879c-12.747,1.797-13.224-18.688-4.32-19.867 1.922-.256 7.223-.355 6.912,4.318 3.016-1.042 7.368-5.265 11.229-2.592-5.405-.426-.556,4.571-.863,6.911 4.049-1.033 3.335-6.223 7.772-2.591 .006-3.749-3.787-3.698-6.046-5.184 4.288-.831 4.608,2.304 7.775,2.592 3.086-2.098.929-9.438 4.318-11.229 1.148,2.116 3.216-.948 3.457.863-.705,2.664-1.926,9.39-4.32,5.183v2.592c-.526.049-1.023.13-.863.863 2.653-1.579 3.885.778 6.046-.863 .787-16.776 3.48-31.648 5.183-47.509-4.03-2.307-7.525-5.146-12.958-6.047-3.533,10.573-3.806,24.409-8.638,33.688 1.426-12.683 5.39-22.829 6.912-35.417-2.035.02-2.544-1.487-5.183-.862-4.974,15.327-6.127,33.494-12.095,45.78 1.468,3.717 6.594,3.772 7.775,7.774-1.965-.117-3.346-5.2-5.183-2.591 .955.586 4.482,2.87 2.591,3.456-2.933-1.1-3.271-4.791-6.909-5.183-1.905,4.38 1.368,6.179.863,7.772-15.458-15.427-22.608,23.7-3.455,18.143zm30.234-73.425c-.53-.251-3.325-2.147-3.457,0 1.609-.824 2.888,2.588 3.457,0zm-158.079,17.278c.526-5.71-1.509-8.857-.863-14.687-.192-.674-.725-1.004-1.729-.863 1.096,4.952-.09,12.183 2.592,15.55zm192.63-2.591c.441-1.716-4.766-1.978-1.727-3.457-.004.479.699.982.863,0-1.874-2.645-2.012-2.021-5.183-2.592-.921.806-.269,3.188-2.592,2.592-3.51-.808-5.396-3.239-9.501-3.454 2.79,3.834 9.793,3.452 12.093,7.774 1.492-.524-.066-4.099 1.729-4.32 .856,4.326 6.276,4.09 8.637,6.912-1.485-.047-2.214.665-2.591,1.729 8.081,1.905 12.286,7.146 19.004,6.909-7.676-2.755-12.074-13.176-20.732-12.093zm-186.584,1.726c.087-2.677-.39-4.791-1.726-6.047 .147,2.446-.744,5.928 1.726,6.047zm160.671,40.6c4.832-1.177 7.418,0 11.229,1.729 2.089-2.343-.948-4.798 0-8.638 2.148.094 2.675,1.617 4.32,0 1.796-6.901-4.951-16.408.863-19.005-.35,11.191.852,15.604.863,25.914 1.92.671 3.37,1.815 6.046,1.729 .637-3.717 2.055-8.147 2.592-12.958 .478-4.261-1.141-10.206 2.592-12.093 3.382,7.947-9.553,24.373.865,28.505-.725-2.442-1.004-5.332-1.729-7.774 2.508-.658 2.239-4.094 6.046-3.454 1.581,1.873-.162,7.073 1.729,8.638 1.511-3.941 4.766-7.181 6.909-11.229 1.978-3.734 1.884-9.964 6.912-11.229 .051,4.533-6.676,9.33-7.775,15.549 4.318,1.047 5.35,7.377 1.729,9.501 7.611-.347 12.059,3.558 16.413-1.728-1.62-5.589-4.733-14.258-2.592-20.73 2.649,9.73 1.17,23.59 10.366,26.778 5.173-6.351-3.432-17.412-2.592-27.644-2.662-1.658-4.339-4.299-8.64-4.318-.147,1.292.309,3.188-.863,3.455 .115-2.129.13-4.162-.863-5.184-17.519-6.379-32.478-15.319-50.101-21.596-.916,15.785-3.413,29.987-4.319,45.782zm145.121-41.463c-.39-2.404 4.708.678 4.318-1.729-1.276-3.12-6.783-.56-4.318,1.729zm-317.021,5.182c2.364.003 3.365-5.773 1.729-6.911-1.182,1.702-.826,4.934-1.729,6.911zm13.821,6.047c1.208-2.483-2.353-4.389 0-5.184 .733,3.828 4.13,3.662 2.591,7.775 4.32-.439 6.895,6.67 9.503,2.591-.066,1.505.192,2.688.863,3.455 19.567,7.5 38.419,15.714 59.604,21.596 1.392-2.351.552-6.933 2.591-8.638-9.588-1.931-17.163-5.874-27.642-6.912-8.964-6.304-23.688-8.456-30.233-14.684-1.505-.064-2.688.191-3.457.863-.87-6.528-9.181-3.318-9.501-8.638-1.699-.259-1.713,1.167-2.592,1.728 .043-2.634-.784-4.398-2.591-5.183 1.473,4.168-3.548,9.735.864,11.231zm25.05-7.774c2.521,1.27 2.521-3.862 0-2.592v2.592zm158.079-1.727c-3.491-3.039-2.037,2.78 0,0zm-157.214,12.093c-1.149-2.597-2.385-5.103-4.32-6.91-2.79,3.634 1.224,6.438 4.32,6.91zm-41.463,6.911c2.847-.032 3.301-2.457 3.455-5.184-1.017-.136-2.453.147-2.592-.865 .484-1.242 1.347-2.107 2.592-2.591 .134,1.017-.149,2.453.863,2.591 1.948-1.866-.714-2.945 0-6.046-1.505.063-2.686-.191-3.455-.863-1.824,4.072-3.354,8.813-.863,12.958zm6.91-11.231c-.97.09-1.345-1.255-1.726,0 .008.872 1.513,1.087 1.726,0zm1.728,1.728c-.731,5.111.495-3.465 0,0zm321.34,0c-.733-.733-2.464.626-2.592.863-.816,1.517 3.188-.266 2.592-.863zm-163.263,28.505c1.255-.471 4.465,1.01 4.32-.863-3.928-.334-1.089-4.177 0-6.046-3.346-4.331 1.98-11.022 0-18.142-3.161,6.631-3.798,15.785-4.32,25.051zm156.351-18.138c.602.676 4.821,1.922 5.184,0-5.474.123 1.125-6.449-3.455-6.912-.049,2.832-2.458,3.303-1.729,6.912zm6.912,6.045c.24-1.969-.209-3.248-1.729-3.454-.993,1.021-.977,3.054-.863,5.183 4-2.623 2.76,1.507 4.319,3.455 1.944-5.433.648-13.459-2.591-16.413-3.247,3.673 4.721,7.048.864,11.229zm-326.523,0c-.629-1.963 1.556-6.738-1.729-6.046-.084,2.677.393,4.792 1.729,6.046zm105.385,13.822c-2.212,7.915 5.179,18.171 13.821,12.958-.884-5.516-2.423-6.166-5.181-8.638-.616,2.551-.238,6.097-2.591,6.909v-6.047c-1.807-2.89-3.248,3.331-4.32.863-.501-5.396 2.608-7.18 6.046-8.638-.226,3.681 3.465,3.446 4.32,6.047 .392-2.939 3.175-6.561.863-9.501-5.352.232-11.39.439-12.958,6.047zm18.141-19.004c-2.402,1.053-1.605,5.307-1.729,8.638-.103,2.489-3.683,1.5-3.455,4.32 5.836,3.847 9.889-11.865 5.184-12.958zm.863,12.095c.723.732 6.752,2.365 6.046-.865-1.969-1.186-3.246,2.227-3.455,0 .514-2.756-1.622-2.671 0-4.318 1.494.315 5.341,2.611 6.046.863-2.031-1.424-3.043-3.866-6.046-4.32-.207,3.537-2.621,4.865-2.591,8.64zm117.479,13.82c2.667-.213 4.883-.876 6.912-1.729 .29-6.913-3.544-9.701-2.592-17.275-2.774-2.122-5.498-4.292-9.503-5.183 .974,8.815 3.391,16.189 5.183,24.187zm-209.906-19.869c.145-2.161-1.328-2.702-2.591-3.454 .362,1.651.313,3.718 2.591,3.454zm269.51,1.728c-1.153-1.44.313-5.496-2.592-5.183 1.448,2.294-1.66,4.915 2.592,5.183zm-265.192,0c-.539-2.053-1.162-4.021-3.455-4.32 .488,2.106.739,4.444 3.455,4.32zm4.32,1.729c-.488-2.105-.739-4.443-3.457-4.32 .776,1.818.027,5.155 3.457,4.32zm275.556-2.592c2.656-.128 3.886,3.039 6.047.863 1.009-3.542-6.006-3.469-6.047-.863zm-271.238,5.184c1.424-1.343-.294-3.367-.863-5.184h-2.592c-.373,3.252 1.824,3.935 3.455,5.184zm-6.91,2.59c-.103-2.57-3.118-7.178-4.32-3.456 1.725.869 1.364,3.819 4.32,3.456zm-7.775-6.911c.844,2.035.279,5.479 3.455,5.184-.533-2.347-1.713-4.046-3.455-5.184zm-25.05,4.321c-2.195.656-1.449-5.903-3.455-2.592 1.06.477 1.682,5.669 3.455,2.592zm246.187,11.229c4.339-1.134 9.132-1.812 12.094-4.32-5.424-3.214-9.202-8.073-15.549-10.366 1.225,4.823 1.515,10.579 3.455,14.686zm-200.404-9.504c.156-2.239-2.425-6.12-4.32-3.454 1.724.867 1.364,3.819 4.32,3.454zm39.735,13.821c3.22,1.098 5.098,3.542 10.366,2.592-.083-5.842-.414-11.931 1.726-15.548-6.666-12.716-18.923,2.08-12.092,12.956zm26.779-17.275c-.011-.872-1.516-1.087-1.729,0 .97-.088 1.345,1.255 1.729,0zm176.218.863c1.53-.196 4.326.871 3.454-1.727-1.969-.242-3.246.208-3.454,1.727zm-286.789,6.046c3.15-3.005 2.208-1.775 5.184.865-.062-3.395-2.144-4.768-3.455-6.911 .801,3.393-3.003,2.18-1.729,6.046zm42.329,2.592c4.42-1.816 3.469.865 6.909,1.729-.283-2.019-1.038-3.568-1.726-5.184-3.001,2.707-4.572-2.666-6.912,0 1.598.13.531,2.927 1.729,3.455zm8.638,2.592c2.47-1.588 4.733,1.884 6.909,1.728 .354-.025-.145-2.105.866-1.728s.377,4.228 2.591,2.591c.275-2.003-.139-3.315-.865-4.317-3.467,2.585-8.363-5.718-11.229-.865 1.086.355 1.766,1.113 1.728,2.591zm-19.004-11.23c.433,8.474 4.718,3.088 8.638,6.911-1.509-7.448-5.175-2.199-8.638-6.911zm19.867,4.32c-1.818-1.927-2.875-4.611-6.91-4.319-.345,3.549 4.563,6.328 6.91,4.319zm240.141-3.454c-.396,2.698 1.846,2.76 4.318,2.591 .279-2.805-2.324-4.599-4.318-2.591zm-266.055,4.317c-2.059-2.37-3.809-.04-6.046-2.592-.331,3.156 5.918,5.156 6.046,2.592zm31.097,1.728c.194-1.635-.974-1.907-.863-3.455-1.292.147-3.188-.309-3.455.863 2.035.267 1.607,3 4.318,2.592zm-27.642,1.727c-.036-1.189.407-1.896.863-2.592-1.168-.271-1.65-1.229-3.455-.863-.147,2.163 1.328,2.705 2.592,3.455zm32.825,0c1.328-3.135-3.167-4.785-4.32-2.592 1.341.966 1.801,2.809 4.32,2.592zm52.692,3.457c2.029.274 3.244,1.363 6.046.862 .132-2.747 1.961-3.8 1.729-6.911-3.917-2.365-6.509,2.992-7.775,6.049zm-79.471,0c-1.863-1.593-.825-6.085-4.318-6.049 .68,2.776.8,6.113 4.318,6.049zm31.099-2.592c.241-1.97-.209-3.248-1.729-3.457-1.089,1.015-.692,3.591 1.729,3.457zm241.002,0c2.498.153 4.762-2.918 1.729-3.457 .629,2.358-1.715,1.74-1.729,3.457zm-272.101,0c1.106.047 1.198,1.105 2.591.863 .047-1.485-.665-2.215-1.726-2.592 .002.868-.701,1.03-.865,1.729zm36.282,1.727c-.106-2.197-1.257-3.349-3.457-3.455 .107,2.197 1.258,3.35 3.457,3.455zm59.602,10.366c3.459.004 2.864-4.048 5.183-5.184-1.366-2.664-2.442-5.62-3.455-8.638-2.561,2.285-3.693,9.803-1.728,13.822zm15.549-4.318c-.362,3.356 2.79,5.858.863,8.638 1.654,2.869 7.615,3.365 11.229,1.727-1.485-5.861-.784-12.242.865-17.275-6.312-6.197-12.204-.087-12.957,6.91zm116.617-6.911c.595-2.323-1.786-1.669-2.592-2.592-.597,2.323 1.784,1.671 2.592,2.592zm5.18,0c1.507-.8 4.638.029 4.32-2.592-2.016.29-3.721.886-4.32,2.592zm6.049,3.454c2.726-.422 3.05,1.559 6.046.865-.392-4.721-3.416.396-3.457-2.591-.002-.267 2.677-.03 1.729-1.729-.298-.535-3.003.456-2.591-.863 1.325-.207.127-1.424-.863-1.729-.276,2.03-1.365,3.242-.864,6.047zm-75.153-.864c2.093.555 3.237-4.115 1.729-4.319-.37,1.648-2.469,1.564-1.729,4.319zm-182.265-2.59c-.731,5.11.495-3.466 0,0zm19.868,2.59c.526.05 1.023.131.863.863 1.055-.098 2.046-.258 1.729-1.726-1.018.135-2.454-.148-2.592.863zm5.183,1.729c1.023-1.127.407-5.485-2.592-5.183-.328,2.92 1.499,3.685 2.592,5.183zm34.553-1.729c.401-2.704-.752-3.854-3.457-3.454-.4,2.704.752,3.856 3.457,3.454zm95.019,14.685c-.207,1.234-1.421,1.458-1.726,2.592 2.018-.267 3.567-1.69 5.181,0-3.014-6.234-2.052-11.462-.863-19.004-2.56-.607-3.761-2.573-7.774-1.727-4.771,4.703-7.842,20.266 5.182,18.139zm76.016-13.821c4.977,2.801 7.741-.541 12.958-1.726-1.882-5.895-10.294.198-12.958,1.726zm-227.184-2.591c-.729,5.11.494-3.466 0,0zm154.622,14.685c2.366,5.051 9.29,5.113 13.821,4.318-3.476-5.062-2.532-11.839 0-17.276-9.083-7.576-17.8,4.453-13.821,12.958zm125.254-6.047c1.889-2.979 1.541-5.207-1.729-6.91-5.057,3.342-2.928,10.605 0,14.685 2.922-2.707 4.54.539 6.912-.863-1.683-2.348-1.975-6.088-5.183-6.912zm4.32,3.456c2.688-2.205 3.625-6.163 5.181-9.503-.132,3.302.045,6.292 1.729,7.775 .461-2.995-1.283-8.192 1.729-8.639-.243,1.97.207,3.248 1.727,3.455 .509-3.099-1.004-4.18-1.727-6.046-3.104.524-3.099,4.151-6.911,1.729-1.832,2.233-3.78,7.87-1.728,11.229zm-260.009-7.775c1.189-.038 1.897.407 2.592.863-.284-1.801-1.486-7.061-3.455-4.317 1.279.159.791,2.086.863,3.454zm21.596,0c.275-2.003-.139-3.316-.865-4.319h-2.591c.487,2.103.739,4.443 3.456,4.319zm221.135,9.501c3.071,1.343.522-2.933 2.592-2.592 .034,2.848-.354,6.113 2.592,6.049 .177-4.497-2.342-6.298-3.455-9.503 4.012,2.293 1.173-3.156 5.184-.863-.226-2.53 1.952-2.653 1.727-5.184-1.277-.449-2.177-1.278-3.455-1.728-1.606,4.731-6.337,6.335-5.185,13.821zm-147.712-8.638c.761,2.121.778,4.983 3.457,5.184-1.422-3.643 2.6-9.382-.866-9.501-.266,2.035-2.999,1.607-2.591,4.317zm-89.836-2.591c.196,1.532-.872,4.327 1.727,3.457 .354-2.082-1.577-1.878-.863-4.32-1.017.135-2.451-.148-2.592.863h1.728zm21.596,2.591c.401-2.704-.752-3.855-3.457-3.455-.4,2.705.752,3.856 3.457,3.455zm25.05-2.591c-.731,5.111.495-3.465 0,0zm97.61,0c-.373,3.255 1.827,3.935 3.457,5.184 2.336-1.584.149-2.924 1.727-4.318 .011,1.716 2.357,1.098 1.729,3.455-4.279,2.195-3.32,8.823-1.729,13.821 1.108-2.709 4.113,1.879 4.32-1.729-4.942-4.604-1.562-13.531 1.726-17.276-5.114-.88-1.319,1.786-4.317,2.592-1.171-2.46-4.844-2.409-6.913-1.729zm-139.938,4.32c4.058-.36 5.878,1.226 9.503,3.455 6.057-1.354 7.707,1.314 12.958,1.728-1.215-7.94-7.875-1.666-11.231-6.046-.417,1.021-.921,1.957-1.726,2.59 1.006-4.045-3.51-4.225-4.32-1.727-.618-4.901-3.497-2.212-6.909-4.32-.135,2.15 1.355,2.674 1.725,4.32zm25.916.863c-.021-4.299-4.017-4.62-7.774-5.184 1.235,6.459 3.413,1.851 7.774,5.184zm44.918,6.046c2.871-.279.938,4.246 5.183,2.592-.009-2.662-4.075-6.219-5.183-2.592zm.863-11.229h-3.455c-1.336,1.77-1.336,7.734 0,9.503h3.455c.831-2.276 1.671-7.4 0-9.503zm88.974,17.278c-.132-2.749-1.958-3.803-1.728-6.912-2.795-1.067-.659,2.797-3.455,1.729-1.514-.79-3.001-1.606-2.592-4.319 1.635-1.714 4.081-.42 6.047,0 .274-2.027 1.365-3.242.862-6.047-14.758-6.791-14.743,23.536.866,15.549zm.863-5.184c4.652-1.969 5.861-7.387 9.503-10.366-7.037-4.283-14.407,5.397-9.503,10.366zm-26.779-6.047c.854-.685 3.293-4.061 1.729-4.318-1.056.976-3.487,8.39-1.729,4.318zm52.695,8.639c2.527.35 3.499,2.257 5.181,3.455 2.307-2.639-3.064-8.466.865-10.366 1.104.049 1.196,1.107 2.592.862-.226-2.527 1.952-2.653 1.727-5.181-6.071-3.923-12.319,1.951-10.365,11.23zm22.459,3.455c-1.238-4.139-3.31-5.18-3.455-8.639-1.773.819-2.396,2.788-3.457,4.318v-6.046c1.524.754 2.675,2.892 3.457,0-2.981-1.939 3.497-1.603 1.727-5.184-15.697-4.393-9.602,19.952 1.728,15.551zm14.683-1.728v-6.047c-1.15-2.118-2.606,1.557-3.454-.863-1.371-4.251 4.463-1.295 3.454-5.183-.458-2.421-4.162-1.597-6.046-2.592 .757,4.118-1.649,7.726.863,12.958 2.343.465 2.151.691 5.183,1.727zm-11.229-5.184c.194-1.632-.974-1.905-.862-3.454 1.76-1.507 1.694.644 3.454-.863 .414-2.718-1.229-3.378-1.729-5.184-1.632-.193-1.905.975-3.454.863 .568,5.613-1.196,8.968 0,12.958 2.715-1.17 2.966-.269 3.454,2.592 2.129.112 4.162.13 5.184-.863v-2.592c-4.312.539-2.208-5.85-6.047-3.457zm12.958,0c3.246-1.179 1.795-5.136 5.184-4.317v-5.184c-5.128-.229-5.586,4.205-5.184,9.501zm-243.596-6.909h1.728v-1.729h-1.728v1.729zm193.495,12.958c4.478.584 4.901,1.877 8.638,1.727 .234-5.234-.932-11.873 1.727-14.685-7.616-5.559-15.224,5.727-10.365,12.958zm-40.599-5.184c4.358-.618 6.72-6.332 2.592-8.638-1.664,2.083-2.552,4.937-2.592,8.638zm-140.804-6.047c-.008-.872-1.513-1.085-1.726,0 .97-.088 1.345,1.256 1.726,0zm5.183,4.319c.354-2.082-1.577-1.877-.863-4.319h-2.591c.96,1.629 1.214,3.969 3.454,4.319zm78.608,1.728c1.633,1.562 9.165,3.381 10.367,0-3.702-.33-3.338-4.727-6.046-6.048-1.399,2.061-3.104,3.809-4.321,6.048zm180.538-2.591c2.278.263 2.228-1.803 2.592-3.456h-2.592v3.456zm-278.15,2.591c.328-2.92-1.496-3.687-2.592-5.183-1.551,1.656-.242,5.318 2.592,5.183zm20.733-3.457h1.726c1.345-2.124-2.932-2.538-2.589-.862 .526.049 1.02.13.863.862zm21.595,1.729c4.299-.558 3.674-.42 6.909.863v-3.454c-4.041,1.357-2.868-.717-6.909-.863v3.454zm82.926-2.591c-.731,5.11.495-3.466 0,0zm149.439,4.319c1.025-1.127.409-5.485-2.592-5.183-.033,2.626-.5,5.684 2.592,5.183zm-259.143-3.457c-2.91-2.621-2.62,3.196 0,0zm169.308,10.368c3.841.386 6.296-.614 8.638-1.727-.426-3.031-1.287-5.624-.863-9.503-5.324,1.012-5.92,6.749-7.775,11.23zm-132.163-6.047c1.679-1.666.901-5.287-2.591-4.32 .287,2.016.884,3.723 2.591,4.32zm25.913-2.592c-.011-.871-1.513-1.087-1.729,0 .97-.087 1.345,1.256 1.729,0zm-44.917,1.728h1.726c1.343-2.127-2.933-2.54-2.591-.865 .528.049 1.022.13.865.865zm34.551,3.455h1.729c-2.477-6.912-10.528-3.273-15.549-5.184 2.28,5.213 10.746-.091 10.366,9.504 4.654-.985 3.621.285 7.774.862v-3.454c-4.056.313-7.131-.356-7.774-3.457 2.793-1.066.66,2.797 3.454,1.729zm179.675-.863c1.698.384 5.341,3.203 6.909.863-2.933-1.098-3.574-4.488-6.909-5.184v4.321zm13.821.863c1.839-2.093-1.925-3.821-3.455-5.184-.234,3.115-.218,5.977 3.455,5.184zm-220.273,0c.808-2.893-2.766-5.782-4.32-3.455 1.588,1.004.599,4.585 4.32,3.455zm3.455.864c1.294-1.279.079-4.465-2.591-4.318-.171,2.472-.11,4.714 2.591,4.318zm112.297-.864c2.638-.625 3.147.882 5.183.863 .712-2.44-1.219-2.238-.865-4.318-2.953-.362-4.922.261-4.318,3.455zm27.641,0c.145-2.163-1.328-2.705-2.592-3.455-.146,2.162 1.326,2.705 2.592,3.455zm30.234,2.592c-.149-2.445.742-5.928-1.729-6.047-1.042,1.145-.863,5.941 1.729,6.047zm-165.854-.863c1.622-1.647-.511-1.564 0-4.32h-2.591c-.41,2.713 1.077,3.529 2.591,4.32zm22.46-.865h4.318c.194-1.633-.974-1.905-.863-3.455h-3.455v3.455zm7.773.865c.128-2.145.162-4.192-1.727-4.32-1.369,1.292-1.263,4.925 1.727,4.32zm-65.65-2.592c3.651,5.006 14.311,2.496 18.141,5.184-.158-5.755-4.855-1.601-6.912-5.184-.665,2.246-5.622.213-7.772-.865 .772,3.018-2.817,1.477-3.457.865zm96.749,1.727h1.726c-.002-.865.701-1.027.866-1.727-1.106-.049-1.198-1.108-2.592-.865v2.592zm22.459-.864c-1.294.017-3.534-3.21-4.32-.863 1.1.175 4.233,2.511 4.32.863zm85.518,2.592c-.288-2.017-.885-3.722-2.592-4.32 .021,2.282-.806,5.413 2.592,4.32zm-164.126,0c1.129-2.669-2.451-4.9-3.455-2.592 1.665.352.682,3.348 3.455,2.592zm.863-2.592c-.145,2.161 1.328,2.704 2.592,3.455 .727-1.002 1.14-2.314.865-4.318-1.505-.066-2.688.192-3.457.863zm7.775,3.456c-.486-2.104-.74-4.444-3.455-4.318-.36,2.951.26,4.92 3.455,4.318zm18.141-.864c2.276.26 2.834-1.196 2.591-3.455h-2.591v3.455zm3.455-.863c2.129,2.771 5.336-2.014 1.729-2.592-.208,1.232-1.425,1.456-1.729,2.592zm121.799.863c.241-1.97-.209-3.248-1.729-3.455 .197,1.53-.869,4.324 1.729,3.455zm38.871-2.592c-2.089,2.899 2.896-2.088 0,0zm-156.351.864v1.729c.526.049 1.023.13.863.863h1.729c.049-.527.128-1.023.863-.863v-1.729c-.526-.049-1.023-.128-.863-.863h-1.729c-.049.526-.127,1.022-.863.863zm5.183,2.592c2.523.228 3.316-3.351.863-3.455-.272,1.167-1.229,1.649-.863,3.455zm5.184.865c.271-1.168 1.228-1.652.863-3.457-2.945-.651-3.37,3.299-.863,3.457zm-63.059.862c1.127-2.668-2.453-4.901-3.457-2.591 1.664.352.682,3.348 3.457,2.591zm65.65-.862h2.589v-2.592h-2.589v2.592zm5.181,0c2.521,1.268 2.521-3.862 0-2.592v2.592zm-67.376,1.725c.243-2.259-.315-3.715-2.591-3.454-.148,2.161 1.327,2.704 2.591,3.454zm4.317,0c.245-2.259-.315-3.715-2.589-3.454-.245,2.259.314,3.715 2.589,3.454zm3.457,1.729c1.328-1.317 1.539-5.923-1.729-5.183-1.64,1.626-.104,4.489 1.729,5.183zm28.505-1.729c.273-1.168 1.23-1.649.863-3.454h-2.591c-.241,1.969.209,3.248 1.728,3.454zm2.592,0h2.592c.243-2.259-.315-3.715-2.592-3.454v3.454zm31.962-1.725c.49,3.917 4.947-4.949.863-.865-.411.411-.993-.165-.863.865zm6.91.862v-1.728c-1.595-2.869-4.212,2.594 0,1.728zm-64.785,2.592v-4.319h-2.591c-.172,2.473-.11,4.713 2.591,4.319zm30.233-.865c2.321.597 1.669-1.784 2.589-2.589-1.187.036-1.895-.407-2.589-.865-1.44,1.716.077,1.099 0,3.454zm44.055-1.727h1.726v-1.728h-1.726v1.728zm3.454,0c1.168.271 1.649,1.23 3.455.863 .65-2.945-3.299-3.369-3.455-.863zm124.389-1.727c-4.442,2.087 2.975,2.233 0,0zm-201.268,1.727c-.26,2.276 1.195,2.835 3.455,2.592 .243-2.259-.315-3.717-2.591-3.454-.05.526-.129,1.02-.864.862zm35.416,2.592c.271-1.168 1.23-1.649.863-3.454h-3.455c-.754,2.767 1.331,2.7 2.592,3.454zm46.646-.865c2.519,1.271 2.519-3.859 0-2.589v2.589zm4.318,0h2.592c.158-1.884-.706-2.747-2.592-2.589v2.589zm6.049.865c1.121-1.148 1.138-3.214-.865-3.454-1.122,1.146-1.139,3.214.865,3.454zm104.522-.865c.049-.526.128-1.021.863-.863-.099-1.053-.258-2.046-1.729-1.726 .136,1.016-.147,2.45.866,2.589zm42.326-1.727c-2.089,2.897 2.898-2.088 0,0zm-269.511,1.727c2.772-.757 1.79,2.242 3.455,2.592 1.238-3.662-2.643-5.966-3.455-2.592zm36.28,1.728c1.125-1.15.53-2.606-.863-3.455 .147,1.292-.309,3.189.863,3.455zm5.183.863c.409-2.713-1.077-3.529-2.592-4.318-1.792,1.778.002,4.38 2.592,4.318zm26.779-1.726c1.969.241 3.246-.209 3.455-1.729-1.168-.271-1.649-1.229-3.455-.863v2.592zm6.046.863c.271-1.168 1.23-1.649.863-3.455h-2.591c-.241,1.97.208,3.248 1.728,3.455zm53.556-3.455c-.763-.664-2.466.531-2.591.863-1.237,3.3 4.302.625 2.591-.863zm4.32.863c-.97.088-1.345-1.255-1.729,0 .011.872 1.515,1.087 1.729,0zm1.729.864h1.726v-1.727h-1.726v1.727zm7.774.865h1.727c.967-1.244.931-2.107-.863-2.592-.05,1.105-1.109,1.196-.864,2.592zm4.317,0h2.592v-2.592h-2.592v2.592zm4.321,0h1.727c.049-1.104 1.108-1.197.865-2.592h-1.729c-.047,1.105-1.108,1.196-.863,2.592zm4.318-.865c1.104.049 1.197,1.108 2.591.865 .047-1.485-.665-2.214-1.729-2.592 .005.866-.698,1.027-.862,1.727zm18.141.865v-1.729c-1.595-2.868-4.212,2.594 0,1.729zm8.637,0c.047-1.485-.665-2.214-1.729-2.592-1.233,1.262-1.267,3.345 1.729,2.592zm-176.217.863h1.726c-.002-.865.701-1.027.865-1.729-1.104-.047-1.198-1.106-2.591-.863v2.592zm75.15-2.592c-.763-.662-2.466.531-2.591.863-1.236,3.299 4.303.626 2.591-.863zm5.184,2.592c.26-2.276-1.195-2.835-3.455-2.592-.867,2.884 1.198,2.833 3.455,2.592zm76.016-2.592c-1.017.135-2.453-.149-2.592.863 1.017-.133 2.451.15 2.592-.863zm5.183,1.729h1.727v-1.729h-1.727v1.729zm10.364-.865c-.008-.871-1.513-1.085-1.726,0 .181,1.044.959.533 1.726,0zm8.639-.864c-1.015.135-2.451-.149-2.59.863 1.016-.133 2.451.15 2.59-.863zm8.639,4.321h3.454c-.477-1.539-.442-3.587-1.728-4.32 .644,2.66-2.369,1.66-1.726,4.32zm5.183,0c4.476,1.17 1.744-6.505 0-3.457 2.357.782-2.627,1.933 0,3.457zm18.14-2.592c1.485.047 2.214-.665 2.591-1.729-1.486-.047-2.214.665-2.591,1.729zm13.82,0c1.357-.083 2.997.115 2.592-1.729h-1.727c.002.869-.701,1.03-.865,1.729zm-249.643,0c-.729,5.108.494-3.465 0,0zm30.234,0c-.292-.699-2.293-1.042-2.591,0-.572,2.001 3.375,1.867 2.591,0zm40.599,2.592c.241-1.97-.208-3.248-1.728-3.457-1.36,1.285-.961,3.859 1.728,3.457zm38.009-3.457h-3.455c-.682,3.327 4.135,3.327 3.455,0zm1.726,2.591h2.591v-2.592h-2.591v2.592zm6.912,0c.047-1.485-.665-2.215-1.729-2.592-1.234,1.264-1.268,3.347 1.729,2.592zm104.521-1.726c-.87,2.599 1.925,1.53 3.454,1.727v-2.592c-1.502-.064-2.684.194-3.454.865zm23.325,1.726h2.591c-.136-1.017.147-2.451-.865-2.592-.207,1.235-1.422,1.459-1.726,2.592zm-210.772-1.726c-.763-.665-2.466.531-2.591.863-1.239,3.299 4.302.622 2.591-.863zm32.825,2.592c.156-1.884-.708-2.749-2.591-2.592-.158,1.884.707,2.747 2.591,2.592zm7.775.863v-3.455c-3.328-.682-3.328,4.135 0,3.455zm47.509-2.592c-.16-1.278-2.086-.793-3.455-.863-1.845,3.178 4.399,3.896 3.455.863zm1.728,1.729h1.727c-.002-.867.701-1.029.865-1.729-1.106-.047-1.198-1.106-2.592-.863v2.592zm4.318,0h3.455c.682-3.327-4.135-3.327-3.455,0zm4.32,0h3.455c.679-3.327-4.137-3.327-3.455,0zm153.759-2.592c-.185,8.704 6.326,2.195 0,0zm-247.917,1.726c-.292-.697-2.293-1.042-2.589,0-.573,2.003 3.374,1.87 2.589,0zm3.457,1.729v-2.592h-2.592c-.157,1.884.706,2.749 2.592,2.592zm38.006,0c.262-2.276-1.195-2.835-3.455-2.592-.704,3.091 1.84,4.288 3.455,2.592zm57.878-.863c2.161.106 2.702,1.647 3.455-.865-1.149-1.122-3.214-1.138-3.455.865zm10.364.863c.126-1.021 1.538-1.959 0-2.592-.124,1.021-1.536,1.959 0,2.592zm2.592,0c2.146.13 3.584-.445 4.319-1.729-1.29-1.37-4.924-1.261-4.319,1.729zm5.183,0c1.97.24 3.248-.209 3.457-1.729-1.285-1.359-3.859-.96-3.457,1.729zm45.783-.863c1.357-.083 2.994.115 2.592-1.729h-1.729c.004.867-.699,1.029-.863,1.729zm5.183,0c1.357-.083 2.995.115 2.592-1.729h-1.729c.002.867-.699,1.029-.863,1.729zm37.143-.866c-.009-.872-1.514-1.085-1.727,0 .181,1.044.96.533 1.727,0zm-196.948,2.592c.26-2.274-1.198-2.835-3.457-2.592-.868,2.884 1.2,2.835 3.457,2.592zm33.688,0h2.591v-2.592h-2.591v2.592zm6.046.865c1.121-1.149 1.138-3.216-.863-3.457-1.123,1.149-1.14,3.216.863,3.457zm74.288-1.728h2.591c.111-1.552-.858-2.021-2.591-1.729v1.729zm4.32,0c1.53-.196 4.324.871 3.455-1.729-1.97-.241-3.248.209-3.455,1.729zm5.183,0c1.53-.196 4.324.871 3.454-1.729h-3.454v1.729zm4.318,0c2.291-.013 5.088.479 5.184-1.729-1.78.525-6.003-1.393-5.184,1.729zm6.912,0h2.591c.111-1.552-.858-2.021-2.591-1.729v1.729zm4.317,0h2.592c.11-1.552-.856-2.021-2.592-1.729v1.729zm4.321,0c1.53-.196 4.326.871 3.454-1.729h-3.454v1.729zm9.501-1.729c-1.256.473-4.465-1.008-4.318.865 1.255-.473 4.464,1.008 4.318-.865zm33.69,2.592c2.551-.614 6.098-.237 6.909-2.592-2.666,2.281-6.775-2.22-6.909,2.592zm-179.675.865c.518-2.244-.348-3.109-2.592-2.592-.594,2.322 1.787,1.67 2.592,2.592zm4.32.864c.243-2.26-.315-3.715-2.592-3.455-.242,2.258.316,3.715 2.592,3.455zm36.28-.864c2.519,1.27 2.519-3.862 0-2.592v2.592zm3.454.864c2.144.128 4.192.161 4.32-1.729-1.718-.011-1.1-2.355-3.457-1.727-.27,1.169-1.229,1.65-.863,3.456zm-35.416,0c.518-2.244-.345-3.107-2.592-2.592-.594,2.323 1.786,1.669 2.592,2.592zm154.624.862h2.592c.241-1.969-.209-3.245-1.729-3.454-.272,1.168-1.229,1.649-.863,3.454zm13.821-1.726c1.332-2.608-4.472-2.274-4.32-.865 2.038,1.113 1.607-.113 4.32.865zm-231.504-.865c-1.017.136-2.451-.147-2.592.865 1.017-.136 2.454.147 2.592-.865zm3.457,2.591c.757-1.779-2.242-3.879-2.591-1.726 1.359.077.675,2.202 2.591,1.726zm24.185-.862h2.591c.111-1.552-.857-2.021-2.591-1.729v1.729zm43.191.862v-2.591h-2.591c-.156,1.884.708,2.749 2.591,2.591zm33.689-.862h2.591c.113-1.552-.856-2.021-2.591-1.729v1.729zm7.775-.864c-.16-1.281-2.087-.793-3.455-.865-1.844,3.178 4.399,3.898 3.455.865zm4.32,0c-.162-1.281-2.089-.793-3.457-.865-1.844,3.178 4.398,3.898 3.457.865zm.863,1.726c1.136,1.108 3.184,1.108 4.32,0 .26-2.275-1.198-2.834-3.457-2.591 .038,1.189-.405,1.897-.863,2.591zm5.183.865c2.924.241 4.959,1.373 8.638.863 .275-2.003-.139-3.315-.863-4.319-3.712,2.397-2.898.058-7.774,0-.001,1.153-.001,2.304-.001,3.456zm9.501-2.591c-.605,2.99 3.028,3.097 4.32,1.726 .605-2.989-3.029-3.097-4.32-1.726zm81.2,1.726h2.591v-2.591h-2.591v2.591zm-136.484,0c1.635-.193 1.908.975 3.455.865 .652-2.947-3.3-3.369-3.455-.865zm60.467.865c1.969.241 3.248-.208 3.457-1.728-1.168-.271-1.651-1.23-3.457-.863v2.591zm4.32,0h2.592v-2.591h-1.729c-.047,1.104-1.106,1.196-.863,2.591zm4.318.864c2.163.147 2.704-1.327 3.457-2.591-1.168-.271-1.649-1.23-3.457-.863v3.454zm4.32,0c2.259.243 3.715-.315 3.454-2.591-1.104-.047-1.195-1.106-2.591-.863-.271,1.167-1.23,1.649-.863,3.454zm4.319-.864c1.97.241 3.246-.208 3.455-1.728-2.197-.446-3.35-1.472-3.455,1.728zm8.639-1.727v1.728c3.49,3.489 4.737-4.985 0-1.728zm6.909,2.591c.243-1.969-.207-3.248-1.727-3.454-1.362,1.282-.962,3.859 1.727,3.454zm1.729-2.591v1.728c.526.05 1.022.128.863.863h1.728c.05-.526.128-1.022.863-.863v-1.728c-.526-.05-1.022-.131-.863-.863h-1.728c-.05.526-.128,1.02-.863.863zm27.641,0c1.15,1.44-.315,5.496 2.592,5.183-1.132-3.938.112-2.73 1.727-5.183-1.135-1.109-3.185-1.109-4.319,0zm5.184,1.727c1.608-.119 2.885-.568 3.454-1.728-1.283-1.36-3.859-.963-3.454,1.728zm31.097-.865c1.357-.08 2.994.117 2.591-1.726h-1.729c.005.866-.698,1.028-.862,1.726zm-229.776.865h1.728v-1.728h-1.728v1.728zm76.016-.865c-.183,2.57 3.082,3.048 4.32,1.729 .605-2.991-3.029-3.099-4.32-1.729zm79.471,1.729v-2.591h-2.592c-.155,1.884.708,2.747 2.592,2.591zm14.684-.864c1.285,1.36 3.859.962 3.457-1.728-1.97-.24-3.248.209-3.457,1.728zm8.64-.865c-1.167-.271-1.649-1.229-3.456-.862-.651,2.945 3.3,3.369 3.456.862zm.863.865c1.53-.197 4.327.87 3.455-1.728-1.97-.24-3.246.209-3.455,1.728zm5.184,0c.49,3.918 4.946-4.946.863-.865-.411.412-.993-.161-.863.865zm4.317,0h2.592c.113-1.551-.856-2.022-2.592-1.728v1.728zm36.282,0c1.357-.083 2.994.115 2.592-1.728h-1.729c.002.868-.699,1.027-.863,1.728zm-143.395,1.727c2.519,1.271 2.519-3.861 0-2.592v2.592zm-40.597.865c.156-1.886-.708-2.749-2.591-2.592-.158,1.885.704,2.748 2.591,2.592zm3.454.863c1.599-1.523-.222-2.675-1.728-3.455-1.089,1.013-.693,3.59 1.728,3.455zm162.398,0c2.005-.298 4.047-.559 3.454-3.455-2.704-.4-3.856.751-3.454,3.455zm6.911-.863c.124-1.021 1.537-1.958 0-2.592-.126,1.022-1.539,1.957 0,2.592zm2.592-.865c1.355-.081 2.994.117 2.589-1.727h-1.726c.002.867-.701,1.028-.863,1.727zm-170.174.865c1.106.047 1.198,1.106 2.591.863 .047-1.485-.665-2.214-1.726-2.592 .002.866-.701,1.028-.865,1.729zm143.394,1.727c2.276.26 2.835-1.195 2.592-3.455-2.276-.26-2.837,1.196-2.592,3.455zm7.774-.864c1.969.241 3.247-.209 3.456-1.729-1.283-1.359-3.86-.96-3.456,1.729zm4.319-.863c1.283,1.36 3.859.961 3.455-1.729-1.97-.24-3.246.21-3.455,1.729zm-97.612.863h1.729v-1.729h-1.729v1.729zm4.32.864h2.592v-2.592h-2.592v2.592zm4.32,0h1.727c.049-1.104 1.108-1.195.865-2.592h-2.592v2.592zm4.318,0h2.592v-2.592h-2.592v2.592zm4.32-1.727c-.646,3.289 5.594,1.867 4.318-.865-2.004-.275-3.317.139-4.318.865zm5.183,1.727h2.591v-2.592h-1.729c-.046,1.104-1.107,1.198-.862,2.592zm4.318-1.727c-1.332,2.606 4.471,2.272 4.32.863-.829-1.458-2.716-2.547-4.32-.863zm6.046,1.727c2.521,1.271 2.521-3.861 0-2.592v2.592zm21.596.863c3.161-.188 3.314-1.186 6.049,0 .271-1.168 1.229-1.649.863-3.455-3.253,1.649-3.657,1.649-6.912,0-.999,1.279-.999,2.179 0,3.455zm8.637-.863h2.592v-2.592h-1.727c-.048,1.104-1.107,1.198-.865,2.592zm4.321,0h3.455v-2.592h-2.592c.038,1.189-.405,1.896-.863,2.592zm8.637-1.727c-.159-1.28-2.086-.793-3.454-.865-1.844,3.178 4.399,3.898 3.454.865zm.866,1.727h2.592v-2.592h-2.592v2.592zm4.318,0h2.591v-2.592h-2.591v2.592zm47.509-2.592c-1.017.137-2.451-.146-2.592.865 1.019-.136 2.453.148 2.592-.865zm-92.427,2.592c1.357-.081 2.994.115 2.592-1.727h-1.729c.002.865-.699,1.027-.863,1.727zm6.046-.864c-2.088,2.899 2.898-2.088 0,0zm3.455.864h1.729v-1.727h-1.729v1.727zm3.457,0c1.357-.081 2.994.115 2.589-1.727h-1.726c.002.865-.701,1.027-.863,1.727zm-73.425.863h2.591c.111-1.55-.859-2.021-2.591-1.727v1.727zm145.985-1.727c-2.626.541-7.44-1.106-8.638.863 2.625-.54 7.439,1.107 8.638-.863zm-62.196,5.184c1.532-.198 4.326.869 3.454-1.729h-3.454v1.729zm6.911,0h1.727c1.345-2.127-2.933-2.541-2.592-.865 .528.049 1.024.13.865.865zm-159.807,2.591c-1.014.135-2.451-.148-2.589.863 1.016-.134 2.451.149 2.589-.863zm-25.051,3.455c1.488.047 2.217-.665 2.592-1.729-1.485-.045-2.214.665-2.592,1.729zm-13.82,10.366c2.259.243 3.717-.315 3.457-2.592-2.164-.146-2.705,1.328-3.457,2.592z" fill-rule="evenodd"/>
 <path d="m141.67 50.965c-12.951 6.054-23.294 14.713-31.962 25.052 5.414-10.141 16.338-22.244 31.962-25.052z" fill-rule="evenodd"/>
 <path d="m107.117,79.471c-7.85,10.279-12.724,25.321-16.411,38.871-.982,3.608.917,10.042-3.457,12.095 .249-5.224 2.193-8.75 2.591-13.823-4.582.889-7.707,3.235-12.092,4.32 5.409-4.092 15.097-3.907 14.684-13.821-2.843-2.223-7.911.695-9.501,2.591-1.709-3.465 7.184-3.736 10.364-5.183-.196-1.53.872-4.326-1.726-3.455 4.785,1.14 2.82-3.242 6.046-9.503 2.524-4.895 5.772-8.336 9.502-12.092z" fill-rule="evenodd"/>
 <path d="m162.4 120.07c2.76-2.142 6.238 2.366 10.364 1.727-2.538 1.919-7.413-1.192-10.364-1.727z" fill-rule="evenodd"/>
 <path d="m76.883 137.35c3.783-2.807-7.014 5.204 0 0z" fill-rule="evenodd"/>
 <path d="m80.34 149.44c1.091-1.824-2.487 5.188-5.183 5.184 1.362-2.094 3.09-3.82 5.183-5.184z" fill-rule="evenodd"/>
 <path d="m149.445,168.443c.087-1.647 3.218.688 4.318.865-.784,2.345-3.027-.88-4.318-.865z" fill-rule="evenodd"/>
 <path d="m103.662,168.443c-.213.94-1.718.586-1.727,1.728-12.275,1.48-3.416-.692 1.727-1.728z" fill-rule="evenodd"/>
 <path d="m138.22 171.04c-2.813-1.626 4.25 2.462 0 0z" fill-rule="evenodd"/>
 <path d="m159.811,172.763c6.204-.149 14.066,5.507 20.73,7.774-6.191.135-13.799-5.773-20.73-7.774z" fill-rule="evenodd"/>
 <path d="m152.9 176.22c-5.762-2.598 6.897 2.24 0 0z" fill-rule="evenodd"/>
 <path d="m143.4 178.81c4.954-0.957 8.252 3.865 0 0z" fill-rule="evenodd"/>
 <path d="m101.936,178.81c-.552,1.751-4.039.568-4.32,2.591-2.62-1.579 2.455-2.645 4.32-2.591z" fill-rule="evenodd"/>
 <path d="m145.99 191.77c-2.813-1.628 4.25 2.462 0 0z" fill-rule="evenodd"/>
 <path d="m195.23 184.86c2.737 2.734 2.381 8.559 7.773 8.638-4.056 2.244 1.127 5.009 4.319 5.184-2.014 1.399-4.68 0.803-2.591 4.319-3.969-5.247-7.496-10.931-9.501-18.141z" fill-rule="evenodd"/>
 <path d="m164.129,269.51c-.75-3.342 2.11-3.073 2.592-5.184 3.567,1.072-.326,2.513-.863,4.32 .139,1.013 1.575.729 2.591.863 1.172-.267.716-2.163.863-3.455 1.245.196.3,2.577 1.729,2.592-.784,1.808-2.549,2.634-5.183,2.592 .317-1.47-.674-1.63-1.729-1.728z" fill-rule="evenodd"/>
 <path d="m343.8 304.93c-2.331 5.73-15.783 0.341-20.732 3.454 1.051-3.567 13.932-2.757 20.732-3.454z" fill-rule="evenodd"/>
 <path d="m304.07 306.66c0.247 1.149-7.728 1.456-11.229 1.727 2.928-1.39 6.869-1.769 11.229-1.727z" fill-rule="evenodd"/>
 <path d="m332.575,314.43c2.538,1.767-5.731-.041-6.049,1.726 .205,2.388 4.874.31 4.32,3.455-6.251-2.598-16.017.379-21.596-4.317-5.447-.265-10.23.136-14.685.862 .205,2.388 4.872.31 4.318,3.455-7.125-.867-12.459.541-19.005-1.727 .118-1.421 5.932-1.421 6.049,0 11.099-5.602 30.658-2.74 46.648-3.454zm-7.776.863c-2.625.541-7.439-1.106-8.638.862 2.215,1.785 6.848.453 8.638-.862z" fill-rule="evenodd"/>
 <path d="m59.607 322.2c-3.216-1.195 2.542-0.13 1.729-1.727h10.364c-2.466 2.14-9.444-0.23-12.093 1.727z" fill-rule="evenodd"/>
 <path d="m225.461,334.297c5.396-.703 17.376-1.976 25.05-.865-7.392,2.383-18.814,3.026-25.05.865z" fill-rule="evenodd"/>
</svg>
