<?xml version="1.0" encoding="UTF-8" standalone="no"?>
<svg
   xmlns:dc="http://purl.org/dc/elements/1.1/"
   xmlns:cc="http://creativecommons.org/ns#"
   xmlns:rdf="http://www.w3.org/1999/02/22-rdf-syntax-ns#"
   xmlns:svg="http://www.w3.org/2000/svg"
   xmlns="http://www.w3.org/2000/svg"
   xmlns:sodipodi="http://sodipodi.sourceforge.net/DTD/sodipodi-0.dtd"
   xmlns:inkscape="http://www.inkscape.org/namespaces/inkscape"
   width="282.22mm"
   height="15.456mm"
   version="1.1"
   viewBox="0 0 1000 54.764416"
   id="svg10"
   sodipodi:docname="spear.svg"
   inkscape:version="0.92.2 (5c3e80d, 2017-08-06)">
  <metadata
     id="metadata16">
    <rdf:RDF>
      <cc:Work
         rdf:about="">
        <dc:format>image/svg+xml</dc:format>
        <dc:type
           rdf:resource="http://purl.org/dc/dcmitype/StillImage" />
      </cc:Work>
    </rdf:RDF>
  </metadata>
  <defs
     id="defs14" />
  <sodipodi:namedview
     pagecolor="#ffffff"
     bordercolor="#666666"
     borderopacity="1"
     objecttolerance="10"
     gridtolerance="10"
     guidetolerance="10"
     inkscape:pageopacity="0"
     inkscape:pageshadow="2"
     inkscape:window-width="1250"
     inkscape:window-height="801"
     id="namedview12"
     showgrid="false"
     inkscape:zoom="0.53250419"
     inkscape:cx="324.71426"
     inkscape:cy="228.89696"
     inkscape:window-x="0"
     inkscape:window-y="0"
     inkscape:window-maximized="0"
     inkscape:current-layer="svg10" />
  <g
     transform="translate(935.02 -690.5)"
     id="g8"
     style="fill:#000000">
    <g
       transform="matrix(.53413 0 0 .53413 -435.6 347.2)"
       id="g6"
       stroke-width="5.7231"
       stroke="#000"
       style="fill:#000000">
      <path
         d="m759.27 685.56c-9.7581 0.17324-1682.8-0.46307-1690.1-0.43625-0.69545 5.0682-0.0537 14.863-0.81168 19.55 6.949 0.0829 1678-0.0869 1688 0.0917 0.34266 4.6399 4.5314-25.57 2.9626-19.205z"
         id="path2"
         fill="#505050"
         style="fill:#000000" />
      <path
         d="m865.15 686.29c-9.009-2.8332-37.396-8.8771-45.01-23.672-2.4284 11.229 1.4812 17.989-0.2387 29.359-3.3212-12.134-9.1244-15.321-16.115-13.929-6.3637-0.88678-14.917 9.3424-19.779 16.471 2.3461-9.6638 3.2181-20.101 10.741-29.223 7.5223-9.1227 8.8782-11.559 13.455-17.116-7.7602 2.3288-27.482 11.15-38.198 18.965-5.3583 3.9072-13.165 12.054-14.733 18.419-9.7581 0.17324-8.9188 19.026 1.0374 19.205 0.34266 4.6399 6.1 8.907 10.851 14.758 5.3656 6.6071 19.008 15.656 33.717 20.357-4.0776-5.624-9.6622-12.28-12.429-18.806-2.7213-6.4176-4.5556-14.017-4.7475-21.884 1.9555 6.4319 6.9506 14.138 15.955 14.306 9.0042 0.16833 15.441-6.2414 19.1-14.658-1.218 9.5264 1.1758 16.098-0.59503 27.307 6.7796-6.646 32.499-19.816 43.823-22.649 11.324-2.8323 51.612-7.4792 74.989-9.3294-22.428-1.6404-63.005-5.1084-71.822-7.8818z"
         id="path4"
         fill="#dedede"
         style="fill:#000000" />
    </g>
  </g>
</svg>
